G04 EAGLE Gerber RS-274X export*
G75*
%MOMM*%
%FSLAX34Y34*%
%LPD*%
%INTop Copper*%
%IPPOS*%
%AMOC8*
5,1,8,0,0,1.08239X$1,22.5*%
G01*
%ADD10C,1.879600*%
%ADD11P,1.814519X8X292.500000*%
%ADD12C,1.508000*%
%ADD13C,0.304800*%


D10*
X152400Y319400D03*
X177800Y319400D03*
X203200Y319400D03*
X228600Y319400D03*
X127000Y215900D03*
X127000Y241300D03*
X152400Y215900D03*
X152400Y241300D03*
X177800Y215900D03*
X177800Y241300D03*
X203200Y215900D03*
X203200Y241300D03*
X228600Y215900D03*
X228600Y241300D03*
X254000Y215900D03*
X254000Y241300D03*
D11*
X88900Y254000D03*
X88900Y203200D03*
X292100Y254000D03*
X292100Y203200D03*
D12*
X355600Y177800D03*
X330200Y177800D03*
X304800Y177800D03*
X279400Y177800D03*
X254000Y177800D03*
X228600Y177800D03*
X203200Y177800D03*
X177800Y177800D03*
X152400Y177800D03*
X127000Y177800D03*
X101600Y177800D03*
X76200Y177800D03*
X50800Y177800D03*
X25400Y177800D03*
X25400Y152400D03*
X25400Y127000D03*
X25400Y101600D03*
X25400Y76200D03*
X25400Y50800D03*
X25400Y25400D03*
X50800Y25400D03*
X76200Y25400D03*
X101600Y25400D03*
X127000Y25400D03*
X152400Y25400D03*
X177800Y25400D03*
X203200Y25400D03*
X228600Y25400D03*
X254000Y25400D03*
X279400Y25400D03*
X304800Y25400D03*
X330200Y25400D03*
X355600Y25400D03*
D13*
X242316Y305684D02*
X228600Y319400D01*
X242316Y305684D02*
X242316Y274560D01*
X250176Y266700D01*
X304800Y266700D01*
X321816Y249684D01*
X321816Y228119D01*
X330200Y219735D01*
X330200Y177800D01*
X304800Y177800D02*
X304800Y215900D01*
X266700Y254000D01*
X241300Y254000D01*
X203200Y292100D01*
X203200Y319400D01*
X215900Y114300D02*
X304800Y25400D01*
X215900Y114300D02*
X114300Y114300D01*
X88900Y139700D01*
X88900Y203200D01*
X127000Y241300D01*
X88900Y254000D02*
X165100Y254000D01*
X177800Y241300D01*
M02*
