M48
;GenerationSoftware,Autodesk,EAGLE,9.5.2*%
;CreationDate,2020-08-11T17:28:24Z*%
FMAT,2
ICI,OFF
METRIC,TZ,000.000
T4C0.813
T3C1.000
T2C1.016
T1C3.400
%
G90
M71
T1
X3050Y24000
X35050Y24000
T2
X15240Y31940
X17780Y31940
X20320Y31940
X22860Y31940
X12700Y21590
X12700Y24130
X15240Y21590
X15240Y24130
X17780Y21590
X17780Y24130
X20320Y21590
X20320Y24130
X22860Y21590
X22860Y24130
X25400Y21590
X25400Y24130
T3
X30480Y2540
X33020Y2540
X35560Y2540
X22860Y17780
X35560Y17780
X33020Y17780
X30480Y17780
X27940Y17780
X25400Y17780
X7620Y17780
X20320Y17780
X17780Y17780
X15240Y17780
X12700Y17780
X10160Y17780
X5080Y17780
X2540Y17780
X2540Y15240
X2540Y12700
X2540Y10160
X2540Y7620
X2540Y5080
X2540Y2540
X5080Y2540
X7620Y2540
X10160Y2540
X12700Y2540
X15240Y2540
X17780Y2540
X20320Y2540
X22860Y2540
X25400Y2540
X27940Y2540
T4
X8890Y25400
X8890Y20320
X29210Y25400
X29210Y20320
M30