G04 EAGLE Gerber RS-274X export*
G75*
%MOMM*%
%FSLAX34Y34*%
%LPD*%
%IN*%
%IPPOS*%
%AMOC8*
5,1,8,0,0,1.08239X$1,22.5*%
G01*
%ADD10C,0.254000*%


D10*
X0Y0D02*
X381000Y0D01*
X381000Y279400D01*
X266700Y279400D01*
X265593Y279448D01*
X264495Y279593D01*
X263413Y279833D01*
X262356Y280166D01*
X261333Y280590D01*
X260350Y281101D01*
X259416Y281697D01*
X258537Y282371D01*
X257720Y283120D01*
X256971Y283937D01*
X256297Y284816D01*
X255701Y285750D01*
X255190Y286733D01*
X254766Y287756D01*
X254433Y288813D01*
X254193Y289895D01*
X254048Y290993D01*
X254000Y292100D01*
X254000Y330200D01*
X253952Y331307D01*
X253807Y332405D01*
X253567Y333487D01*
X253234Y334544D01*
X252810Y335567D01*
X252299Y336550D01*
X251703Y337484D01*
X251029Y338363D01*
X250280Y339180D01*
X249463Y339929D01*
X248584Y340603D01*
X247650Y341199D01*
X246667Y341710D01*
X245644Y342134D01*
X244587Y342467D01*
X243505Y342707D01*
X242407Y342852D01*
X241300Y342900D01*
X139700Y342900D01*
X138593Y342852D01*
X137495Y342707D01*
X136413Y342467D01*
X135356Y342134D01*
X134333Y341710D01*
X133350Y341199D01*
X132416Y340603D01*
X131537Y339929D01*
X130720Y339180D01*
X129971Y338363D01*
X129297Y337484D01*
X128701Y336550D01*
X128190Y335567D01*
X127766Y334544D01*
X127433Y333487D01*
X127193Y332405D01*
X127048Y331307D01*
X127000Y330200D01*
X127000Y292100D01*
X126952Y290993D01*
X126807Y289895D01*
X126567Y288813D01*
X126234Y287756D01*
X125810Y286733D01*
X125299Y285750D01*
X124703Y284816D01*
X124029Y283937D01*
X123280Y283120D01*
X122463Y282371D01*
X121584Y281697D01*
X120650Y281101D01*
X119667Y280590D01*
X118644Y280166D01*
X117587Y279833D01*
X116505Y279593D01*
X115407Y279448D01*
X114300Y279400D01*
X0Y279400D01*
X0Y0D01*
X47500Y239443D02*
X47427Y238333D01*
X47282Y237229D01*
X47065Y236138D01*
X46777Y235063D01*
X46419Y234009D01*
X45993Y232980D01*
X45501Y231982D01*
X44944Y231018D01*
X44326Y230093D01*
X43648Y229210D01*
X42914Y228373D01*
X42127Y227586D01*
X41290Y226852D01*
X40407Y226174D01*
X39482Y225556D01*
X38518Y224999D01*
X37520Y224507D01*
X36491Y224081D01*
X35437Y223723D01*
X34362Y223435D01*
X33271Y223218D01*
X32167Y223073D01*
X31057Y223000D01*
X29943Y223000D01*
X28833Y223073D01*
X27729Y223218D01*
X26638Y223435D01*
X25563Y223723D01*
X24509Y224081D01*
X23480Y224507D01*
X22482Y224999D01*
X21518Y225556D01*
X20593Y226174D01*
X19710Y226852D01*
X18873Y227586D01*
X18086Y228373D01*
X17352Y229210D01*
X16674Y230093D01*
X16056Y231018D01*
X15499Y231982D01*
X15007Y232980D01*
X14581Y234009D01*
X14223Y235063D01*
X13935Y236138D01*
X13718Y237229D01*
X13573Y238333D01*
X13500Y239443D01*
X13500Y240557D01*
X13573Y241667D01*
X13718Y242771D01*
X13935Y243862D01*
X14223Y244937D01*
X14581Y245991D01*
X15007Y247020D01*
X15499Y248018D01*
X16056Y248982D01*
X16674Y249907D01*
X17352Y250790D01*
X18086Y251627D01*
X18873Y252414D01*
X19710Y253148D01*
X20593Y253826D01*
X21518Y254444D01*
X22482Y255001D01*
X23480Y255493D01*
X24509Y255919D01*
X25563Y256277D01*
X26638Y256565D01*
X27729Y256782D01*
X28833Y256927D01*
X29943Y257000D01*
X31057Y257000D01*
X32167Y256927D01*
X33271Y256782D01*
X34362Y256565D01*
X35437Y256277D01*
X36491Y255919D01*
X37520Y255493D01*
X38518Y255001D01*
X39482Y254444D01*
X40407Y253826D01*
X41290Y253148D01*
X42127Y252414D01*
X42914Y251627D01*
X43648Y250790D01*
X44326Y249907D01*
X44944Y248982D01*
X45501Y248018D01*
X45993Y247020D01*
X46419Y245991D01*
X46777Y244937D01*
X47065Y243862D01*
X47282Y242771D01*
X47427Y241667D01*
X47500Y240557D01*
X47500Y239443D01*
X367500Y239443D02*
X367427Y238333D01*
X367282Y237229D01*
X367065Y236138D01*
X366777Y235063D01*
X366419Y234009D01*
X365993Y232980D01*
X365501Y231982D01*
X364944Y231018D01*
X364326Y230093D01*
X363648Y229210D01*
X362914Y228373D01*
X362127Y227586D01*
X361290Y226852D01*
X360407Y226174D01*
X359482Y225556D01*
X358518Y224999D01*
X357520Y224507D01*
X356491Y224081D01*
X355437Y223723D01*
X354362Y223435D01*
X353271Y223218D01*
X352167Y223073D01*
X351057Y223000D01*
X349943Y223000D01*
X348833Y223073D01*
X347729Y223218D01*
X346638Y223435D01*
X345563Y223723D01*
X344509Y224081D01*
X343480Y224507D01*
X342482Y224999D01*
X341518Y225556D01*
X340593Y226174D01*
X339710Y226852D01*
X338873Y227586D01*
X338086Y228373D01*
X337352Y229210D01*
X336674Y230093D01*
X336056Y231018D01*
X335499Y231982D01*
X335007Y232980D01*
X334581Y234009D01*
X334223Y235063D01*
X333935Y236138D01*
X333718Y237229D01*
X333573Y238333D01*
X333500Y239443D01*
X333500Y240557D01*
X333573Y241667D01*
X333718Y242771D01*
X333935Y243862D01*
X334223Y244937D01*
X334581Y245991D01*
X335007Y247020D01*
X335499Y248018D01*
X336056Y248982D01*
X336674Y249907D01*
X337352Y250790D01*
X338086Y251627D01*
X338873Y252414D01*
X339710Y253148D01*
X340593Y253826D01*
X341518Y254444D01*
X342482Y255001D01*
X343480Y255493D01*
X344509Y255919D01*
X345563Y256277D01*
X346638Y256565D01*
X347729Y256782D01*
X348833Y256927D01*
X349943Y257000D01*
X351057Y257000D01*
X352167Y256927D01*
X353271Y256782D01*
X354362Y256565D01*
X355437Y256277D01*
X356491Y255919D01*
X357520Y255493D01*
X358518Y255001D01*
X359482Y254444D01*
X360407Y253826D01*
X361290Y253148D01*
X362127Y252414D01*
X362914Y251627D01*
X363648Y250790D01*
X364326Y249907D01*
X364944Y248982D01*
X365501Y248018D01*
X365993Y247020D01*
X366419Y245991D01*
X366777Y244937D01*
X367065Y243862D01*
X367282Y242771D01*
X367427Y241667D01*
X367500Y240557D01*
X367500Y239443D01*
M02*
