G04 EAGLE Gerber RS-274X export*
G75*
%MOMM*%
%FSLAX34Y34*%
%LPD*%
%INSilkscreen Top*%
%IPPOS*%
%AMOC8*
5,1,8,0,0,1.08239X$1,22.5*%
G01*
%ADD10C,0.076200*%
%ADD11C,0.203200*%
%ADD12C,0.015238*%
%ADD13C,0.152400*%
%ADD14C,0.127000*%


D10*
X144258Y283345D02*
X144258Y284912D01*
X149479Y284912D01*
X149479Y281779D01*
X149477Y281690D01*
X149471Y281602D01*
X149462Y281514D01*
X149449Y281426D01*
X149432Y281339D01*
X149412Y281253D01*
X149387Y281168D01*
X149360Y281083D01*
X149328Y281000D01*
X149294Y280919D01*
X149255Y280839D01*
X149214Y280761D01*
X149169Y280684D01*
X149121Y280610D01*
X149070Y280537D01*
X149016Y280467D01*
X148958Y280400D01*
X148898Y280334D01*
X148836Y280272D01*
X148770Y280212D01*
X148703Y280154D01*
X148633Y280100D01*
X148560Y280049D01*
X148486Y280001D01*
X148409Y279956D01*
X148331Y279915D01*
X148251Y279876D01*
X148170Y279842D01*
X148087Y279810D01*
X148002Y279783D01*
X147917Y279758D01*
X147831Y279738D01*
X147744Y279721D01*
X147656Y279708D01*
X147568Y279699D01*
X147480Y279693D01*
X147391Y279691D01*
X142169Y279691D01*
X142169Y279690D02*
X142078Y279692D01*
X141987Y279698D01*
X141896Y279708D01*
X141806Y279722D01*
X141717Y279740D01*
X141628Y279761D01*
X141541Y279787D01*
X141455Y279816D01*
X141370Y279849D01*
X141286Y279886D01*
X141204Y279926D01*
X141125Y279970D01*
X141047Y280017D01*
X140971Y280068D01*
X140897Y280122D01*
X140826Y280179D01*
X140758Y280239D01*
X140692Y280302D01*
X140629Y280368D01*
X140569Y280436D01*
X140512Y280507D01*
X140458Y280581D01*
X140407Y280657D01*
X140360Y280734D01*
X140316Y280814D01*
X140276Y280896D01*
X140239Y280980D01*
X140206Y281064D01*
X140177Y281151D01*
X140151Y281238D01*
X140130Y281327D01*
X140112Y281416D01*
X140098Y281506D01*
X140088Y281597D01*
X140082Y281688D01*
X140080Y281779D01*
X140081Y281779D02*
X140081Y284912D01*
X140081Y289444D02*
X149479Y289444D01*
X149479Y294665D02*
X140081Y289444D01*
X140081Y294665D02*
X149479Y294665D01*
X149479Y299198D02*
X140081Y299198D01*
X140081Y301808D01*
X140083Y301908D01*
X140089Y302008D01*
X140098Y302107D01*
X140112Y302207D01*
X140129Y302305D01*
X140150Y302403D01*
X140174Y302500D01*
X140203Y302596D01*
X140235Y302691D01*
X140270Y302784D01*
X140309Y302876D01*
X140352Y302967D01*
X140398Y303055D01*
X140448Y303142D01*
X140500Y303227D01*
X140556Y303310D01*
X140615Y303391D01*
X140678Y303469D01*
X140743Y303545D01*
X140811Y303619D01*
X140881Y303689D01*
X140955Y303757D01*
X141031Y303822D01*
X141109Y303885D01*
X141190Y303944D01*
X141273Y304000D01*
X141358Y304052D01*
X141445Y304102D01*
X141533Y304148D01*
X141624Y304191D01*
X141716Y304230D01*
X141809Y304265D01*
X141904Y304297D01*
X142000Y304326D01*
X142097Y304350D01*
X142195Y304371D01*
X142293Y304388D01*
X142393Y304402D01*
X142492Y304411D01*
X142592Y304417D01*
X142692Y304419D01*
X146868Y304419D01*
X146968Y304417D01*
X147068Y304411D01*
X147167Y304402D01*
X147267Y304388D01*
X147365Y304371D01*
X147463Y304350D01*
X147560Y304326D01*
X147656Y304297D01*
X147751Y304265D01*
X147844Y304230D01*
X147936Y304191D01*
X148027Y304148D01*
X148115Y304102D01*
X148202Y304052D01*
X148287Y304000D01*
X148370Y303944D01*
X148451Y303885D01*
X148529Y303822D01*
X148605Y303757D01*
X148679Y303689D01*
X148749Y303619D01*
X148817Y303545D01*
X148882Y303469D01*
X148945Y303391D01*
X149004Y303310D01*
X149060Y303227D01*
X149112Y303142D01*
X149162Y303055D01*
X149208Y302967D01*
X149251Y302876D01*
X149290Y302784D01*
X149325Y302691D01*
X149357Y302596D01*
X149386Y302500D01*
X149410Y302403D01*
X149431Y302305D01*
X149448Y302207D01*
X149462Y302107D01*
X149471Y302008D01*
X149477Y301908D01*
X149479Y301808D01*
X149479Y299198D01*
X174879Y292665D02*
X174879Y289532D01*
X174879Y292665D02*
X174877Y292754D01*
X174871Y292842D01*
X174862Y292930D01*
X174849Y293018D01*
X174832Y293105D01*
X174812Y293191D01*
X174787Y293276D01*
X174760Y293361D01*
X174728Y293444D01*
X174694Y293525D01*
X174655Y293605D01*
X174614Y293683D01*
X174569Y293760D01*
X174521Y293834D01*
X174470Y293907D01*
X174416Y293977D01*
X174358Y294044D01*
X174298Y294110D01*
X174236Y294172D01*
X174170Y294232D01*
X174103Y294290D01*
X174033Y294344D01*
X173960Y294395D01*
X173886Y294443D01*
X173809Y294488D01*
X173731Y294529D01*
X173651Y294568D01*
X173570Y294602D01*
X173487Y294634D01*
X173402Y294661D01*
X173317Y294686D01*
X173231Y294706D01*
X173144Y294723D01*
X173056Y294736D01*
X172968Y294745D01*
X172880Y294751D01*
X172791Y294753D01*
X171746Y294753D01*
X171657Y294751D01*
X171569Y294745D01*
X171481Y294736D01*
X171393Y294723D01*
X171306Y294706D01*
X171220Y294686D01*
X171135Y294661D01*
X171050Y294634D01*
X170967Y294602D01*
X170886Y294568D01*
X170806Y294529D01*
X170728Y294488D01*
X170651Y294443D01*
X170577Y294395D01*
X170504Y294344D01*
X170434Y294290D01*
X170367Y294232D01*
X170301Y294172D01*
X170239Y294110D01*
X170179Y294044D01*
X170121Y293977D01*
X170067Y293907D01*
X170016Y293834D01*
X169968Y293760D01*
X169923Y293683D01*
X169882Y293605D01*
X169843Y293525D01*
X169809Y293444D01*
X169777Y293361D01*
X169750Y293276D01*
X169725Y293191D01*
X169705Y293105D01*
X169688Y293018D01*
X169675Y292930D01*
X169666Y292842D01*
X169660Y292754D01*
X169658Y292665D01*
X169658Y289532D01*
X165481Y289532D01*
X165481Y294753D01*
X165481Y298154D02*
X174879Y301286D01*
X165481Y304419D01*
X190881Y292752D02*
X200279Y292752D01*
X190881Y290141D02*
X190881Y295363D01*
X190881Y304419D02*
X200279Y298154D01*
X200279Y304419D02*
X190881Y298154D01*
X216281Y289589D02*
X225679Y289589D01*
X216281Y289589D02*
X216281Y292199D01*
X216283Y292300D01*
X216289Y292401D01*
X216299Y292502D01*
X216312Y292602D01*
X216330Y292702D01*
X216351Y292801D01*
X216377Y292899D01*
X216406Y292996D01*
X216438Y293092D01*
X216475Y293186D01*
X216515Y293279D01*
X216559Y293371D01*
X216606Y293460D01*
X216657Y293548D01*
X216711Y293634D01*
X216768Y293717D01*
X216828Y293799D01*
X216892Y293877D01*
X216958Y293954D01*
X217028Y294027D01*
X217100Y294098D01*
X217175Y294166D01*
X217253Y294231D01*
X217333Y294293D01*
X217415Y294352D01*
X217500Y294408D01*
X217587Y294460D01*
X217675Y294509D01*
X217766Y294555D01*
X217858Y294596D01*
X217952Y294635D01*
X218047Y294669D01*
X218143Y294700D01*
X218241Y294727D01*
X218339Y294751D01*
X218439Y294770D01*
X218539Y294786D01*
X218639Y294798D01*
X218740Y294806D01*
X218841Y294810D01*
X218943Y294810D01*
X219044Y294806D01*
X219145Y294798D01*
X219245Y294786D01*
X219345Y294770D01*
X219445Y294751D01*
X219543Y294727D01*
X219641Y294700D01*
X219737Y294669D01*
X219832Y294635D01*
X219926Y294596D01*
X220018Y294555D01*
X220109Y294509D01*
X220198Y294460D01*
X220284Y294408D01*
X220369Y294352D01*
X220451Y294293D01*
X220531Y294231D01*
X220609Y294166D01*
X220684Y294098D01*
X220756Y294027D01*
X220826Y293954D01*
X220892Y293877D01*
X220956Y293799D01*
X221016Y293717D01*
X221073Y293634D01*
X221127Y293548D01*
X221178Y293460D01*
X221225Y293371D01*
X221269Y293279D01*
X221309Y293186D01*
X221346Y293092D01*
X221378Y292996D01*
X221407Y292899D01*
X221433Y292801D01*
X221454Y292702D01*
X221472Y292602D01*
X221485Y292502D01*
X221495Y292401D01*
X221501Y292300D01*
X221503Y292199D01*
X221502Y292199D02*
X221502Y289589D01*
X221502Y292722D02*
X225679Y294810D01*
X225679Y298154D02*
X216281Y304419D01*
X216281Y298154D02*
X225679Y304419D01*
D11*
X222250Y332100D02*
X234950Y332100D01*
X241300Y325750D01*
X241300Y313050D02*
X234950Y306700D01*
X196850Y332100D02*
X190500Y325750D01*
X196850Y332100D02*
X209550Y332100D01*
X215900Y325750D01*
X215900Y313050D02*
X209550Y306700D01*
X196850Y306700D01*
X190500Y313050D01*
X215900Y325750D02*
X222250Y332100D01*
X215900Y313050D02*
X222250Y306700D01*
X234950Y306700D01*
X158750Y332100D02*
X146050Y332100D01*
X158750Y332100D02*
X165100Y325750D01*
X165100Y313050D02*
X158750Y306700D01*
X165100Y325750D02*
X171450Y332100D01*
X184150Y332100D01*
X190500Y325750D01*
X190500Y313050D02*
X184150Y306700D01*
X171450Y306700D01*
X165100Y313050D01*
X139700Y313050D02*
X139700Y325750D01*
X146050Y332100D01*
X139700Y313050D02*
X146050Y306700D01*
X158750Y306700D01*
X241300Y313050D02*
X241300Y325750D01*
X120650Y203200D02*
X114300Y209550D01*
X133350Y203200D02*
X139700Y209550D01*
X146050Y203200D01*
X158750Y203200D02*
X165100Y209550D01*
X171450Y203200D01*
X184150Y203200D02*
X190500Y209550D01*
X196850Y203200D01*
X209550Y203200D02*
X215900Y209550D01*
X222250Y203200D01*
X234950Y203200D02*
X241300Y209550D01*
X247650Y203200D01*
X260350Y203200D02*
X266700Y209550D01*
X114300Y209550D02*
X114300Y247650D01*
X120650Y254000D01*
X133350Y254000D01*
X139700Y247650D01*
X146050Y254000D01*
X158750Y254000D01*
X165100Y247650D01*
X171450Y254000D01*
X184150Y254000D01*
X190500Y247650D01*
X196850Y254000D01*
X209550Y254000D01*
X215900Y247650D01*
X222250Y254000D01*
X234950Y254000D01*
X241300Y247650D01*
X247650Y254000D01*
X260350Y254000D01*
X266700Y247650D01*
X139700Y247650D02*
X139700Y209550D01*
X165100Y209550D02*
X165100Y247650D01*
X190500Y247650D02*
X190500Y209550D01*
X215900Y209550D02*
X215900Y247650D01*
X241300Y247650D02*
X241300Y209550D01*
X266700Y209550D02*
X266700Y247650D01*
X260350Y203200D02*
X247650Y203200D01*
X234950Y203200D02*
X222250Y203200D01*
X209550Y203200D02*
X196850Y203200D01*
X184150Y203200D02*
X171450Y203200D01*
X158750Y203200D02*
X146050Y203200D01*
X133350Y203200D02*
X120650Y203200D01*
X120650Y199390D02*
X133350Y199390D01*
X120650Y203200D02*
X114300Y209550D01*
X114300Y247650D01*
X120650Y254000D01*
X114300Y209550D02*
X120650Y203200D01*
X114300Y209550D02*
X114300Y247650D01*
X120650Y254000D01*
D12*
X98475Y243915D02*
X97102Y243915D01*
X97102Y243916D02*
X97097Y243999D01*
X97088Y244083D01*
X97075Y244165D01*
X97059Y244247D01*
X97039Y244328D01*
X97015Y244409D01*
X96987Y244488D01*
X96956Y244565D01*
X96922Y244641D01*
X96884Y244716D01*
X96843Y244789D01*
X96798Y244860D01*
X96751Y244929D01*
X96700Y244995D01*
X96647Y245059D01*
X96590Y245121D01*
X96531Y245180D01*
X96469Y245237D01*
X96405Y245290D01*
X96339Y245341D01*
X96270Y245388D01*
X96199Y245433D01*
X96126Y245474D01*
X96051Y245512D01*
X95975Y245546D01*
X95898Y245577D01*
X95819Y245605D01*
X95738Y245629D01*
X95657Y245649D01*
X95575Y245665D01*
X95493Y245678D01*
X95409Y245687D01*
X95326Y245692D01*
X95325Y247065D01*
X95326Y247065D01*
X95438Y247061D01*
X95549Y247052D01*
X95660Y247040D01*
X95771Y247024D01*
X95880Y247004D01*
X95990Y246980D01*
X96098Y246953D01*
X96205Y246921D01*
X96311Y246886D01*
X96416Y246848D01*
X96520Y246806D01*
X96621Y246760D01*
X96722Y246711D01*
X96820Y246658D01*
X96917Y246602D01*
X97012Y246543D01*
X97104Y246480D01*
X97194Y246414D01*
X97282Y246345D01*
X97368Y246274D01*
X97451Y246199D01*
X97531Y246121D01*
X97609Y246041D01*
X97684Y245958D01*
X97755Y245872D01*
X97824Y245784D01*
X97890Y245694D01*
X97953Y245602D01*
X98012Y245507D01*
X98068Y245410D01*
X98121Y245312D01*
X98170Y245211D01*
X98216Y245110D01*
X98258Y245006D01*
X98296Y244901D01*
X98331Y244795D01*
X98363Y244688D01*
X98390Y244580D01*
X98414Y244470D01*
X98434Y244361D01*
X98450Y244250D01*
X98462Y244139D01*
X98471Y244028D01*
X98475Y243916D01*
X98332Y243916D01*
X98327Y244025D01*
X98319Y244134D01*
X98307Y244242D01*
X98291Y244350D01*
X98271Y244457D01*
X98247Y244564D01*
X98219Y244669D01*
X98188Y244774D01*
X98153Y244877D01*
X98115Y244979D01*
X98073Y245080D01*
X98027Y245179D01*
X97978Y245276D01*
X97925Y245372D01*
X97870Y245466D01*
X97810Y245557D01*
X97748Y245647D01*
X97683Y245734D01*
X97614Y245819D01*
X97543Y245901D01*
X97468Y245981D01*
X97391Y246058D01*
X97311Y246133D01*
X97229Y246204D01*
X97144Y246273D01*
X97057Y246338D01*
X96967Y246400D01*
X96876Y246460D01*
X96782Y246515D01*
X96686Y246568D01*
X96589Y246617D01*
X96490Y246663D01*
X96389Y246705D01*
X96287Y246743D01*
X96184Y246778D01*
X96079Y246809D01*
X95974Y246837D01*
X95867Y246861D01*
X95760Y246881D01*
X95652Y246897D01*
X95544Y246909D01*
X95435Y246917D01*
X95326Y246922D01*
X95326Y246779D01*
X95432Y246774D01*
X95538Y246766D01*
X95644Y246754D01*
X95749Y246737D01*
X95853Y246717D01*
X95957Y246694D01*
X96060Y246666D01*
X96161Y246635D01*
X96262Y246600D01*
X96361Y246562D01*
X96459Y246520D01*
X96555Y246475D01*
X96649Y246426D01*
X96742Y246373D01*
X96833Y246318D01*
X96921Y246259D01*
X97007Y246197D01*
X97092Y246132D01*
X97173Y246064D01*
X97252Y245993D01*
X97329Y245919D01*
X97403Y245842D01*
X97474Y245763D01*
X97542Y245682D01*
X97607Y245597D01*
X97669Y245511D01*
X97728Y245423D01*
X97783Y245332D01*
X97836Y245239D01*
X97885Y245145D01*
X97930Y245049D01*
X97972Y244951D01*
X98010Y244852D01*
X98045Y244751D01*
X98076Y244650D01*
X98104Y244547D01*
X98127Y244443D01*
X98147Y244339D01*
X98164Y244234D01*
X98176Y244128D01*
X98184Y244022D01*
X98189Y243916D01*
X98046Y243916D01*
X98041Y244019D01*
X98033Y244122D01*
X98020Y244225D01*
X98004Y244327D01*
X97984Y244429D01*
X97961Y244530D01*
X97933Y244629D01*
X97902Y244728D01*
X97868Y244825D01*
X97829Y244922D01*
X97788Y245016D01*
X97742Y245109D01*
X97694Y245201D01*
X97642Y245290D01*
X97587Y245377D01*
X97528Y245463D01*
X97467Y245546D01*
X97402Y245627D01*
X97334Y245705D01*
X97264Y245781D01*
X97191Y245854D01*
X97115Y245924D01*
X97037Y245992D01*
X96956Y246057D01*
X96873Y246118D01*
X96787Y246177D01*
X96700Y246232D01*
X96611Y246284D01*
X96519Y246332D01*
X96426Y246378D01*
X96332Y246419D01*
X96235Y246458D01*
X96138Y246492D01*
X96039Y246523D01*
X95940Y246551D01*
X95839Y246574D01*
X95737Y246594D01*
X95635Y246610D01*
X95532Y246623D01*
X95429Y246631D01*
X95326Y246636D01*
X95326Y246493D01*
X95426Y246488D01*
X95526Y246480D01*
X95626Y246467D01*
X95725Y246451D01*
X95824Y246431D01*
X95921Y246408D01*
X96018Y246381D01*
X96113Y246350D01*
X96208Y246315D01*
X96301Y246277D01*
X96392Y246236D01*
X96482Y246191D01*
X96570Y246142D01*
X96656Y246091D01*
X96740Y246036D01*
X96822Y245978D01*
X96902Y245917D01*
X96979Y245853D01*
X97054Y245786D01*
X97127Y245717D01*
X97196Y245644D01*
X97263Y245569D01*
X97327Y245492D01*
X97388Y245412D01*
X97446Y245330D01*
X97501Y245246D01*
X97552Y245160D01*
X97601Y245072D01*
X97646Y244982D01*
X97687Y244891D01*
X97725Y244798D01*
X97760Y244703D01*
X97791Y244608D01*
X97818Y244511D01*
X97841Y244414D01*
X97861Y244315D01*
X97877Y244216D01*
X97890Y244116D01*
X97898Y244016D01*
X97903Y243916D01*
X97760Y243916D01*
X97755Y244016D01*
X97746Y244115D01*
X97733Y244214D01*
X97716Y244312D01*
X97695Y244410D01*
X97671Y244507D01*
X97642Y244602D01*
X97610Y244697D01*
X97574Y244790D01*
X97535Y244882D01*
X97492Y244971D01*
X97445Y245060D01*
X97395Y245146D01*
X97341Y245230D01*
X97284Y245312D01*
X97224Y245392D01*
X97161Y245469D01*
X97095Y245544D01*
X97026Y245616D01*
X96954Y245685D01*
X96879Y245751D01*
X96802Y245814D01*
X96722Y245874D01*
X96640Y245931D01*
X96556Y245985D01*
X96470Y246035D01*
X96381Y246082D01*
X96292Y246125D01*
X96200Y246164D01*
X96107Y246200D01*
X96012Y246232D01*
X95917Y246261D01*
X95820Y246285D01*
X95722Y246306D01*
X95624Y246323D01*
X95525Y246336D01*
X95426Y246345D01*
X95326Y246350D01*
X95326Y246207D01*
X95422Y246202D01*
X95518Y246193D01*
X95614Y246180D01*
X95709Y246163D01*
X95803Y246143D01*
X95896Y246118D01*
X95988Y246090D01*
X96079Y246058D01*
X96169Y246022D01*
X96257Y245983D01*
X96344Y245940D01*
X96428Y245894D01*
X96511Y245844D01*
X96591Y245791D01*
X96670Y245735D01*
X96746Y245676D01*
X96819Y245614D01*
X96890Y245548D01*
X96958Y245480D01*
X97024Y245409D01*
X97086Y245336D01*
X97145Y245260D01*
X97201Y245181D01*
X97254Y245101D01*
X97304Y245018D01*
X97350Y244934D01*
X97393Y244847D01*
X97432Y244759D01*
X97468Y244669D01*
X97500Y244578D01*
X97528Y244486D01*
X97553Y244393D01*
X97573Y244299D01*
X97590Y244204D01*
X97603Y244108D01*
X97612Y244012D01*
X97617Y243916D01*
X97474Y243916D01*
X97469Y244009D01*
X97460Y244101D01*
X97447Y244193D01*
X97430Y244284D01*
X97410Y244375D01*
X97386Y244465D01*
X97358Y244553D01*
X97326Y244641D01*
X97291Y244726D01*
X97252Y244811D01*
X97210Y244894D01*
X97164Y244974D01*
X97115Y245053D01*
X97063Y245130D01*
X97007Y245205D01*
X96949Y245277D01*
X96888Y245346D01*
X96823Y245413D01*
X96756Y245478D01*
X96687Y245539D01*
X96615Y245597D01*
X96540Y245653D01*
X96463Y245705D01*
X96384Y245754D01*
X96304Y245800D01*
X96221Y245842D01*
X96136Y245881D01*
X96051Y245916D01*
X95963Y245948D01*
X95875Y245976D01*
X95785Y246000D01*
X95694Y246020D01*
X95603Y246037D01*
X95511Y246050D01*
X95419Y246059D01*
X95326Y246064D01*
X95326Y245921D01*
X95415Y245915D01*
X95504Y245907D01*
X95592Y245894D01*
X95679Y245877D01*
X95766Y245857D01*
X95852Y245833D01*
X95937Y245806D01*
X96020Y245774D01*
X96102Y245740D01*
X96183Y245701D01*
X96261Y245660D01*
X96338Y245615D01*
X96413Y245567D01*
X96486Y245515D01*
X96557Y245461D01*
X96625Y245404D01*
X96690Y245343D01*
X96753Y245280D01*
X96814Y245215D01*
X96871Y245147D01*
X96925Y245076D01*
X96977Y245003D01*
X97025Y244928D01*
X97070Y244851D01*
X97111Y244773D01*
X97150Y244692D01*
X97184Y244610D01*
X97216Y244527D01*
X97243Y244442D01*
X97267Y244356D01*
X97287Y244269D01*
X97304Y244182D01*
X97317Y244094D01*
X97325Y244005D01*
X97331Y243916D01*
X97188Y243916D01*
X97182Y244001D01*
X97173Y244086D01*
X97161Y244170D01*
X97144Y244253D01*
X97124Y244336D01*
X97101Y244418D01*
X97074Y244498D01*
X97043Y244578D01*
X97009Y244656D01*
X96972Y244732D01*
X96931Y244807D01*
X96887Y244880D01*
X96839Y244951D01*
X96789Y245019D01*
X96736Y245086D01*
X96680Y245150D01*
X96621Y245211D01*
X96560Y245270D01*
X96496Y245326D01*
X96429Y245379D01*
X96361Y245429D01*
X96290Y245477D01*
X96217Y245521D01*
X96142Y245562D01*
X96066Y245599D01*
X95988Y245633D01*
X95908Y245664D01*
X95828Y245691D01*
X95746Y245714D01*
X95663Y245734D01*
X95580Y245751D01*
X95496Y245763D01*
X95411Y245772D01*
X95326Y245778D01*
X82475Y247065D02*
X82475Y245692D01*
X82474Y245692D02*
X82391Y245687D01*
X82307Y245678D01*
X82225Y245665D01*
X82143Y245649D01*
X82062Y245629D01*
X81981Y245605D01*
X81902Y245577D01*
X81825Y245546D01*
X81749Y245512D01*
X81674Y245474D01*
X81601Y245433D01*
X81530Y245388D01*
X81461Y245341D01*
X81395Y245290D01*
X81331Y245237D01*
X81269Y245180D01*
X81210Y245121D01*
X81153Y245059D01*
X81100Y244995D01*
X81049Y244929D01*
X81002Y244860D01*
X80957Y244789D01*
X80916Y244716D01*
X80878Y244641D01*
X80844Y244565D01*
X80813Y244488D01*
X80785Y244409D01*
X80761Y244328D01*
X80741Y244247D01*
X80725Y244165D01*
X80712Y244083D01*
X80703Y243999D01*
X80698Y243916D01*
X79325Y243915D01*
X79325Y243916D01*
X79329Y244028D01*
X79338Y244139D01*
X79350Y244250D01*
X79366Y244361D01*
X79386Y244470D01*
X79410Y244580D01*
X79437Y244688D01*
X79469Y244795D01*
X79504Y244901D01*
X79542Y245006D01*
X79584Y245110D01*
X79630Y245211D01*
X79679Y245312D01*
X79732Y245410D01*
X79788Y245507D01*
X79847Y245602D01*
X79910Y245694D01*
X79976Y245784D01*
X80045Y245872D01*
X80116Y245958D01*
X80191Y246041D01*
X80269Y246121D01*
X80349Y246199D01*
X80432Y246274D01*
X80518Y246345D01*
X80606Y246414D01*
X80696Y246480D01*
X80788Y246543D01*
X80883Y246602D01*
X80980Y246658D01*
X81078Y246711D01*
X81179Y246760D01*
X81280Y246806D01*
X81384Y246848D01*
X81489Y246886D01*
X81595Y246921D01*
X81702Y246953D01*
X81810Y246980D01*
X81920Y247004D01*
X82029Y247024D01*
X82140Y247040D01*
X82251Y247052D01*
X82362Y247061D01*
X82474Y247065D01*
X82474Y246922D01*
X82365Y246917D01*
X82256Y246909D01*
X82148Y246897D01*
X82040Y246881D01*
X81933Y246861D01*
X81826Y246837D01*
X81721Y246809D01*
X81616Y246778D01*
X81513Y246743D01*
X81411Y246705D01*
X81310Y246663D01*
X81211Y246617D01*
X81114Y246568D01*
X81018Y246515D01*
X80924Y246460D01*
X80833Y246400D01*
X80743Y246338D01*
X80656Y246273D01*
X80571Y246204D01*
X80489Y246133D01*
X80409Y246058D01*
X80332Y245981D01*
X80257Y245901D01*
X80186Y245819D01*
X80117Y245734D01*
X80052Y245647D01*
X79990Y245557D01*
X79930Y245466D01*
X79875Y245372D01*
X79822Y245276D01*
X79773Y245179D01*
X79727Y245080D01*
X79685Y244979D01*
X79647Y244877D01*
X79612Y244774D01*
X79581Y244669D01*
X79553Y244564D01*
X79529Y244457D01*
X79509Y244350D01*
X79493Y244242D01*
X79481Y244134D01*
X79473Y244025D01*
X79468Y243916D01*
X79611Y243916D01*
X79616Y244022D01*
X79624Y244128D01*
X79636Y244234D01*
X79653Y244339D01*
X79673Y244443D01*
X79696Y244547D01*
X79724Y244650D01*
X79755Y244751D01*
X79790Y244852D01*
X79828Y244951D01*
X79870Y245049D01*
X79915Y245145D01*
X79964Y245239D01*
X80017Y245332D01*
X80072Y245423D01*
X80131Y245511D01*
X80193Y245597D01*
X80258Y245682D01*
X80326Y245763D01*
X80397Y245842D01*
X80471Y245919D01*
X80548Y245993D01*
X80627Y246064D01*
X80708Y246132D01*
X80793Y246197D01*
X80879Y246259D01*
X80967Y246318D01*
X81058Y246373D01*
X81151Y246426D01*
X81245Y246475D01*
X81341Y246520D01*
X81439Y246562D01*
X81538Y246600D01*
X81639Y246635D01*
X81740Y246666D01*
X81843Y246694D01*
X81947Y246717D01*
X82051Y246737D01*
X82156Y246754D01*
X82262Y246766D01*
X82368Y246774D01*
X82474Y246779D01*
X82474Y246636D01*
X82371Y246631D01*
X82268Y246623D01*
X82165Y246610D01*
X82063Y246594D01*
X81961Y246574D01*
X81860Y246551D01*
X81761Y246523D01*
X81662Y246492D01*
X81565Y246458D01*
X81468Y246419D01*
X81374Y246378D01*
X81281Y246332D01*
X81189Y246284D01*
X81100Y246232D01*
X81013Y246177D01*
X80927Y246118D01*
X80844Y246057D01*
X80763Y245992D01*
X80685Y245924D01*
X80609Y245854D01*
X80536Y245781D01*
X80466Y245705D01*
X80398Y245627D01*
X80333Y245546D01*
X80272Y245463D01*
X80213Y245377D01*
X80158Y245290D01*
X80106Y245201D01*
X80058Y245109D01*
X80012Y245016D01*
X79971Y244922D01*
X79932Y244825D01*
X79898Y244728D01*
X79867Y244629D01*
X79839Y244530D01*
X79816Y244429D01*
X79796Y244327D01*
X79780Y244225D01*
X79767Y244122D01*
X79759Y244019D01*
X79754Y243916D01*
X79897Y243916D01*
X79902Y244016D01*
X79910Y244116D01*
X79923Y244216D01*
X79939Y244315D01*
X79959Y244414D01*
X79982Y244511D01*
X80009Y244608D01*
X80040Y244703D01*
X80075Y244798D01*
X80113Y244891D01*
X80154Y244982D01*
X80199Y245072D01*
X80248Y245160D01*
X80299Y245246D01*
X80354Y245330D01*
X80412Y245412D01*
X80473Y245492D01*
X80537Y245569D01*
X80604Y245644D01*
X80673Y245717D01*
X80746Y245786D01*
X80821Y245853D01*
X80898Y245917D01*
X80978Y245978D01*
X81060Y246036D01*
X81144Y246091D01*
X81230Y246142D01*
X81318Y246191D01*
X81408Y246236D01*
X81499Y246277D01*
X81592Y246315D01*
X81687Y246350D01*
X81782Y246381D01*
X81879Y246408D01*
X81976Y246431D01*
X82075Y246451D01*
X82174Y246467D01*
X82274Y246480D01*
X82374Y246488D01*
X82474Y246493D01*
X82474Y246350D01*
X82374Y246345D01*
X82275Y246336D01*
X82176Y246323D01*
X82078Y246306D01*
X81980Y246285D01*
X81883Y246261D01*
X81788Y246232D01*
X81693Y246200D01*
X81600Y246164D01*
X81508Y246125D01*
X81419Y246082D01*
X81330Y246035D01*
X81244Y245985D01*
X81160Y245931D01*
X81078Y245874D01*
X80998Y245814D01*
X80921Y245751D01*
X80846Y245685D01*
X80774Y245616D01*
X80705Y245544D01*
X80639Y245469D01*
X80576Y245392D01*
X80516Y245312D01*
X80459Y245230D01*
X80405Y245146D01*
X80355Y245060D01*
X80308Y244971D01*
X80265Y244882D01*
X80226Y244790D01*
X80190Y244697D01*
X80158Y244602D01*
X80129Y244507D01*
X80105Y244410D01*
X80084Y244312D01*
X80067Y244214D01*
X80054Y244115D01*
X80045Y244016D01*
X80040Y243916D01*
X80183Y243916D01*
X80188Y244012D01*
X80197Y244108D01*
X80210Y244204D01*
X80227Y244299D01*
X80247Y244393D01*
X80272Y244486D01*
X80300Y244578D01*
X80332Y244669D01*
X80368Y244759D01*
X80407Y244847D01*
X80450Y244934D01*
X80496Y245018D01*
X80546Y245101D01*
X80599Y245181D01*
X80655Y245260D01*
X80714Y245336D01*
X80776Y245409D01*
X80842Y245480D01*
X80910Y245548D01*
X80981Y245614D01*
X81054Y245676D01*
X81130Y245735D01*
X81209Y245791D01*
X81289Y245844D01*
X81372Y245894D01*
X81456Y245940D01*
X81543Y245983D01*
X81631Y246022D01*
X81721Y246058D01*
X81812Y246090D01*
X81904Y246118D01*
X81997Y246143D01*
X82091Y246163D01*
X82186Y246180D01*
X82282Y246193D01*
X82378Y246202D01*
X82474Y246207D01*
X82474Y246064D01*
X82381Y246059D01*
X82289Y246050D01*
X82197Y246037D01*
X82106Y246020D01*
X82015Y246000D01*
X81925Y245976D01*
X81837Y245948D01*
X81749Y245916D01*
X81664Y245881D01*
X81579Y245842D01*
X81496Y245800D01*
X81416Y245754D01*
X81337Y245705D01*
X81260Y245653D01*
X81185Y245597D01*
X81113Y245539D01*
X81044Y245478D01*
X80977Y245413D01*
X80912Y245346D01*
X80851Y245277D01*
X80793Y245205D01*
X80737Y245130D01*
X80685Y245053D01*
X80636Y244974D01*
X80590Y244894D01*
X80548Y244811D01*
X80509Y244726D01*
X80474Y244641D01*
X80442Y244553D01*
X80414Y244465D01*
X80390Y244375D01*
X80370Y244284D01*
X80353Y244193D01*
X80340Y244101D01*
X80331Y244009D01*
X80326Y243916D01*
X80469Y243916D01*
X80475Y244005D01*
X80483Y244094D01*
X80496Y244182D01*
X80513Y244269D01*
X80533Y244356D01*
X80557Y244442D01*
X80584Y244527D01*
X80616Y244610D01*
X80650Y244692D01*
X80689Y244773D01*
X80730Y244851D01*
X80775Y244928D01*
X80823Y245003D01*
X80875Y245076D01*
X80929Y245147D01*
X80986Y245215D01*
X81047Y245280D01*
X81110Y245343D01*
X81175Y245404D01*
X81243Y245461D01*
X81314Y245515D01*
X81387Y245567D01*
X81462Y245615D01*
X81539Y245660D01*
X81617Y245701D01*
X81698Y245740D01*
X81780Y245774D01*
X81863Y245806D01*
X81948Y245833D01*
X82034Y245857D01*
X82121Y245877D01*
X82208Y245894D01*
X82296Y245907D01*
X82385Y245915D01*
X82474Y245921D01*
X82474Y245778D01*
X82389Y245772D01*
X82304Y245763D01*
X82220Y245751D01*
X82137Y245734D01*
X82054Y245714D01*
X81972Y245691D01*
X81892Y245664D01*
X81812Y245633D01*
X81734Y245599D01*
X81658Y245562D01*
X81583Y245521D01*
X81510Y245477D01*
X81439Y245429D01*
X81371Y245379D01*
X81304Y245326D01*
X81240Y245270D01*
X81179Y245211D01*
X81120Y245150D01*
X81064Y245086D01*
X81011Y245019D01*
X80961Y244951D01*
X80913Y244880D01*
X80869Y244807D01*
X80828Y244732D01*
X80791Y244656D01*
X80757Y244578D01*
X80726Y244498D01*
X80699Y244418D01*
X80676Y244336D01*
X80656Y244253D01*
X80639Y244170D01*
X80627Y244086D01*
X80618Y244001D01*
X80612Y243916D01*
X79325Y213285D02*
X80698Y213285D01*
X80698Y213284D02*
X80703Y213201D01*
X80712Y213117D01*
X80725Y213035D01*
X80741Y212953D01*
X80761Y212872D01*
X80785Y212791D01*
X80813Y212712D01*
X80844Y212635D01*
X80878Y212559D01*
X80916Y212484D01*
X80957Y212411D01*
X81002Y212340D01*
X81049Y212271D01*
X81100Y212205D01*
X81153Y212141D01*
X81210Y212079D01*
X81269Y212020D01*
X81331Y211963D01*
X81395Y211910D01*
X81461Y211859D01*
X81530Y211812D01*
X81601Y211767D01*
X81674Y211726D01*
X81749Y211688D01*
X81825Y211654D01*
X81902Y211623D01*
X81981Y211595D01*
X82062Y211571D01*
X82143Y211551D01*
X82225Y211535D01*
X82307Y211522D01*
X82391Y211513D01*
X82474Y211508D01*
X82475Y210135D01*
X82474Y210135D01*
X82362Y210139D01*
X82251Y210148D01*
X82140Y210160D01*
X82029Y210176D01*
X81920Y210196D01*
X81810Y210220D01*
X81702Y210247D01*
X81595Y210279D01*
X81489Y210314D01*
X81384Y210352D01*
X81280Y210394D01*
X81179Y210440D01*
X81078Y210489D01*
X80980Y210542D01*
X80883Y210598D01*
X80788Y210657D01*
X80696Y210720D01*
X80606Y210786D01*
X80518Y210855D01*
X80432Y210926D01*
X80349Y211001D01*
X80269Y211079D01*
X80191Y211159D01*
X80116Y211242D01*
X80045Y211328D01*
X79976Y211416D01*
X79910Y211506D01*
X79847Y211598D01*
X79788Y211693D01*
X79732Y211790D01*
X79679Y211888D01*
X79630Y211989D01*
X79584Y212090D01*
X79542Y212194D01*
X79504Y212299D01*
X79469Y212405D01*
X79437Y212512D01*
X79410Y212620D01*
X79386Y212730D01*
X79366Y212839D01*
X79350Y212950D01*
X79338Y213061D01*
X79329Y213172D01*
X79325Y213284D01*
X79468Y213284D01*
X79473Y213175D01*
X79481Y213066D01*
X79493Y212958D01*
X79509Y212850D01*
X79529Y212743D01*
X79553Y212636D01*
X79581Y212531D01*
X79612Y212426D01*
X79647Y212323D01*
X79685Y212221D01*
X79727Y212120D01*
X79773Y212021D01*
X79822Y211924D01*
X79875Y211828D01*
X79930Y211734D01*
X79990Y211643D01*
X80052Y211553D01*
X80117Y211466D01*
X80186Y211381D01*
X80257Y211299D01*
X80332Y211219D01*
X80409Y211142D01*
X80489Y211067D01*
X80571Y210996D01*
X80656Y210927D01*
X80743Y210862D01*
X80833Y210800D01*
X80924Y210740D01*
X81018Y210685D01*
X81114Y210632D01*
X81211Y210583D01*
X81310Y210537D01*
X81411Y210495D01*
X81513Y210457D01*
X81616Y210422D01*
X81721Y210391D01*
X81826Y210363D01*
X81933Y210339D01*
X82040Y210319D01*
X82148Y210303D01*
X82256Y210291D01*
X82365Y210283D01*
X82474Y210278D01*
X82474Y210421D01*
X82368Y210426D01*
X82262Y210434D01*
X82156Y210446D01*
X82051Y210463D01*
X81947Y210483D01*
X81843Y210506D01*
X81740Y210534D01*
X81639Y210565D01*
X81538Y210600D01*
X81439Y210638D01*
X81341Y210680D01*
X81245Y210725D01*
X81151Y210774D01*
X81058Y210827D01*
X80967Y210882D01*
X80879Y210941D01*
X80793Y211003D01*
X80708Y211068D01*
X80627Y211136D01*
X80548Y211207D01*
X80471Y211281D01*
X80397Y211358D01*
X80326Y211437D01*
X80258Y211518D01*
X80193Y211603D01*
X80131Y211689D01*
X80072Y211777D01*
X80017Y211868D01*
X79964Y211961D01*
X79915Y212055D01*
X79870Y212151D01*
X79828Y212249D01*
X79790Y212348D01*
X79755Y212449D01*
X79724Y212550D01*
X79696Y212653D01*
X79673Y212757D01*
X79653Y212861D01*
X79636Y212966D01*
X79624Y213072D01*
X79616Y213178D01*
X79611Y213284D01*
X79754Y213284D01*
X79759Y213181D01*
X79767Y213078D01*
X79780Y212975D01*
X79796Y212873D01*
X79816Y212771D01*
X79839Y212670D01*
X79867Y212571D01*
X79898Y212472D01*
X79932Y212375D01*
X79971Y212278D01*
X80012Y212184D01*
X80058Y212091D01*
X80106Y211999D01*
X80158Y211910D01*
X80213Y211823D01*
X80272Y211737D01*
X80333Y211654D01*
X80398Y211573D01*
X80466Y211495D01*
X80536Y211419D01*
X80609Y211346D01*
X80685Y211276D01*
X80763Y211208D01*
X80844Y211143D01*
X80927Y211082D01*
X81013Y211023D01*
X81100Y210968D01*
X81189Y210916D01*
X81281Y210868D01*
X81374Y210822D01*
X81468Y210781D01*
X81565Y210742D01*
X81662Y210708D01*
X81761Y210677D01*
X81860Y210649D01*
X81961Y210626D01*
X82063Y210606D01*
X82165Y210590D01*
X82268Y210577D01*
X82371Y210569D01*
X82474Y210564D01*
X82474Y210707D01*
X82374Y210712D01*
X82274Y210720D01*
X82174Y210733D01*
X82075Y210749D01*
X81976Y210769D01*
X81879Y210792D01*
X81782Y210819D01*
X81687Y210850D01*
X81592Y210885D01*
X81499Y210923D01*
X81408Y210964D01*
X81318Y211009D01*
X81230Y211058D01*
X81144Y211109D01*
X81060Y211164D01*
X80978Y211222D01*
X80898Y211283D01*
X80821Y211347D01*
X80746Y211414D01*
X80673Y211483D01*
X80604Y211556D01*
X80537Y211631D01*
X80473Y211708D01*
X80412Y211788D01*
X80354Y211870D01*
X80299Y211954D01*
X80248Y212040D01*
X80199Y212128D01*
X80154Y212218D01*
X80113Y212309D01*
X80075Y212402D01*
X80040Y212497D01*
X80009Y212592D01*
X79982Y212689D01*
X79959Y212786D01*
X79939Y212885D01*
X79923Y212984D01*
X79910Y213084D01*
X79902Y213184D01*
X79897Y213284D01*
X80040Y213284D01*
X80045Y213184D01*
X80054Y213085D01*
X80067Y212986D01*
X80084Y212888D01*
X80105Y212790D01*
X80129Y212693D01*
X80158Y212598D01*
X80190Y212503D01*
X80226Y212410D01*
X80265Y212318D01*
X80308Y212229D01*
X80355Y212140D01*
X80405Y212054D01*
X80459Y211970D01*
X80516Y211888D01*
X80576Y211808D01*
X80639Y211731D01*
X80705Y211656D01*
X80774Y211584D01*
X80846Y211515D01*
X80921Y211449D01*
X80998Y211386D01*
X81078Y211326D01*
X81160Y211269D01*
X81244Y211215D01*
X81330Y211165D01*
X81419Y211118D01*
X81508Y211075D01*
X81600Y211036D01*
X81693Y211000D01*
X81788Y210968D01*
X81883Y210939D01*
X81980Y210915D01*
X82078Y210894D01*
X82176Y210877D01*
X82275Y210864D01*
X82374Y210855D01*
X82474Y210850D01*
X82474Y210993D01*
X82378Y210998D01*
X82282Y211007D01*
X82186Y211020D01*
X82091Y211037D01*
X81997Y211057D01*
X81904Y211082D01*
X81812Y211110D01*
X81721Y211142D01*
X81631Y211178D01*
X81543Y211217D01*
X81456Y211260D01*
X81372Y211306D01*
X81289Y211356D01*
X81209Y211409D01*
X81130Y211465D01*
X81054Y211524D01*
X80981Y211586D01*
X80910Y211652D01*
X80842Y211720D01*
X80776Y211791D01*
X80714Y211864D01*
X80655Y211940D01*
X80599Y212019D01*
X80546Y212099D01*
X80496Y212182D01*
X80450Y212266D01*
X80407Y212353D01*
X80368Y212441D01*
X80332Y212531D01*
X80300Y212622D01*
X80272Y212714D01*
X80247Y212807D01*
X80227Y212901D01*
X80210Y212996D01*
X80197Y213092D01*
X80188Y213188D01*
X80183Y213284D01*
X80326Y213284D01*
X80331Y213191D01*
X80340Y213099D01*
X80353Y213007D01*
X80370Y212916D01*
X80390Y212825D01*
X80414Y212735D01*
X80442Y212647D01*
X80474Y212559D01*
X80509Y212474D01*
X80548Y212389D01*
X80590Y212306D01*
X80636Y212226D01*
X80685Y212147D01*
X80737Y212070D01*
X80793Y211995D01*
X80851Y211923D01*
X80912Y211854D01*
X80977Y211787D01*
X81044Y211722D01*
X81113Y211661D01*
X81185Y211603D01*
X81260Y211547D01*
X81337Y211495D01*
X81416Y211446D01*
X81496Y211400D01*
X81579Y211358D01*
X81664Y211319D01*
X81749Y211284D01*
X81837Y211252D01*
X81925Y211224D01*
X82015Y211200D01*
X82106Y211180D01*
X82197Y211163D01*
X82289Y211150D01*
X82381Y211141D01*
X82474Y211136D01*
X82474Y211279D01*
X82385Y211285D01*
X82296Y211293D01*
X82208Y211306D01*
X82121Y211323D01*
X82034Y211343D01*
X81948Y211367D01*
X81863Y211394D01*
X81780Y211426D01*
X81698Y211460D01*
X81617Y211499D01*
X81539Y211540D01*
X81462Y211585D01*
X81387Y211633D01*
X81314Y211685D01*
X81243Y211739D01*
X81175Y211796D01*
X81110Y211857D01*
X81047Y211920D01*
X80986Y211985D01*
X80929Y212053D01*
X80875Y212124D01*
X80823Y212197D01*
X80775Y212272D01*
X80730Y212349D01*
X80689Y212427D01*
X80650Y212508D01*
X80616Y212590D01*
X80584Y212673D01*
X80557Y212758D01*
X80533Y212844D01*
X80513Y212931D01*
X80496Y213018D01*
X80483Y213106D01*
X80475Y213195D01*
X80469Y213284D01*
X80612Y213284D01*
X80618Y213199D01*
X80627Y213114D01*
X80639Y213030D01*
X80656Y212947D01*
X80676Y212864D01*
X80699Y212782D01*
X80726Y212702D01*
X80757Y212622D01*
X80791Y212544D01*
X80828Y212468D01*
X80869Y212393D01*
X80913Y212320D01*
X80961Y212249D01*
X81011Y212181D01*
X81064Y212114D01*
X81120Y212050D01*
X81179Y211989D01*
X81240Y211930D01*
X81304Y211874D01*
X81371Y211821D01*
X81439Y211771D01*
X81510Y211723D01*
X81583Y211679D01*
X81658Y211638D01*
X81734Y211601D01*
X81812Y211567D01*
X81892Y211536D01*
X81972Y211509D01*
X82054Y211486D01*
X82137Y211466D01*
X82220Y211449D01*
X82304Y211437D01*
X82389Y211428D01*
X82474Y211422D01*
X95325Y210135D02*
X95325Y211508D01*
X95326Y211508D02*
X95409Y211513D01*
X95493Y211522D01*
X95575Y211535D01*
X95657Y211551D01*
X95738Y211571D01*
X95819Y211595D01*
X95898Y211623D01*
X95975Y211654D01*
X96051Y211688D01*
X96126Y211726D01*
X96199Y211767D01*
X96270Y211812D01*
X96339Y211859D01*
X96405Y211910D01*
X96469Y211963D01*
X96531Y212020D01*
X96590Y212079D01*
X96647Y212141D01*
X96700Y212205D01*
X96751Y212271D01*
X96798Y212340D01*
X96843Y212411D01*
X96884Y212484D01*
X96922Y212559D01*
X96956Y212635D01*
X96987Y212712D01*
X97015Y212791D01*
X97039Y212872D01*
X97059Y212953D01*
X97075Y213035D01*
X97088Y213117D01*
X97097Y213201D01*
X97102Y213284D01*
X98475Y213285D01*
X98475Y213284D01*
X98471Y213172D01*
X98462Y213061D01*
X98450Y212950D01*
X98434Y212839D01*
X98414Y212730D01*
X98390Y212620D01*
X98363Y212512D01*
X98331Y212405D01*
X98296Y212299D01*
X98258Y212194D01*
X98216Y212090D01*
X98170Y211989D01*
X98121Y211888D01*
X98068Y211790D01*
X98012Y211693D01*
X97953Y211598D01*
X97890Y211506D01*
X97824Y211416D01*
X97755Y211328D01*
X97684Y211242D01*
X97609Y211159D01*
X97531Y211079D01*
X97451Y211001D01*
X97368Y210926D01*
X97282Y210855D01*
X97194Y210786D01*
X97104Y210720D01*
X97012Y210657D01*
X96917Y210598D01*
X96820Y210542D01*
X96722Y210489D01*
X96621Y210440D01*
X96520Y210394D01*
X96416Y210352D01*
X96311Y210314D01*
X96205Y210279D01*
X96098Y210247D01*
X95990Y210220D01*
X95880Y210196D01*
X95771Y210176D01*
X95660Y210160D01*
X95549Y210148D01*
X95438Y210139D01*
X95326Y210135D01*
X95326Y210278D01*
X95435Y210283D01*
X95544Y210291D01*
X95652Y210303D01*
X95760Y210319D01*
X95867Y210339D01*
X95974Y210363D01*
X96079Y210391D01*
X96184Y210422D01*
X96287Y210457D01*
X96389Y210495D01*
X96490Y210537D01*
X96589Y210583D01*
X96686Y210632D01*
X96782Y210685D01*
X96876Y210740D01*
X96967Y210800D01*
X97057Y210862D01*
X97144Y210927D01*
X97229Y210996D01*
X97311Y211067D01*
X97391Y211142D01*
X97468Y211219D01*
X97543Y211299D01*
X97614Y211381D01*
X97683Y211466D01*
X97748Y211553D01*
X97810Y211643D01*
X97870Y211734D01*
X97925Y211828D01*
X97978Y211924D01*
X98027Y212021D01*
X98073Y212120D01*
X98115Y212221D01*
X98153Y212323D01*
X98188Y212426D01*
X98219Y212531D01*
X98247Y212636D01*
X98271Y212743D01*
X98291Y212850D01*
X98307Y212958D01*
X98319Y213066D01*
X98327Y213175D01*
X98332Y213284D01*
X98189Y213284D01*
X98184Y213178D01*
X98176Y213072D01*
X98164Y212966D01*
X98147Y212861D01*
X98127Y212757D01*
X98104Y212653D01*
X98076Y212550D01*
X98045Y212449D01*
X98010Y212348D01*
X97972Y212249D01*
X97930Y212151D01*
X97885Y212055D01*
X97836Y211961D01*
X97783Y211868D01*
X97728Y211777D01*
X97669Y211689D01*
X97607Y211603D01*
X97542Y211518D01*
X97474Y211437D01*
X97403Y211358D01*
X97329Y211281D01*
X97252Y211207D01*
X97173Y211136D01*
X97092Y211068D01*
X97007Y211003D01*
X96921Y210941D01*
X96833Y210882D01*
X96742Y210827D01*
X96649Y210774D01*
X96555Y210725D01*
X96459Y210680D01*
X96361Y210638D01*
X96262Y210600D01*
X96161Y210565D01*
X96060Y210534D01*
X95957Y210506D01*
X95853Y210483D01*
X95749Y210463D01*
X95644Y210446D01*
X95538Y210434D01*
X95432Y210426D01*
X95326Y210421D01*
X95326Y210564D01*
X95429Y210569D01*
X95532Y210577D01*
X95635Y210590D01*
X95737Y210606D01*
X95839Y210626D01*
X95940Y210649D01*
X96039Y210677D01*
X96138Y210708D01*
X96235Y210742D01*
X96332Y210781D01*
X96426Y210822D01*
X96519Y210868D01*
X96611Y210916D01*
X96700Y210968D01*
X96787Y211023D01*
X96873Y211082D01*
X96956Y211143D01*
X97037Y211208D01*
X97115Y211276D01*
X97191Y211346D01*
X97264Y211419D01*
X97334Y211495D01*
X97402Y211573D01*
X97467Y211654D01*
X97528Y211737D01*
X97587Y211823D01*
X97642Y211910D01*
X97694Y211999D01*
X97742Y212091D01*
X97788Y212184D01*
X97829Y212278D01*
X97868Y212375D01*
X97902Y212472D01*
X97933Y212571D01*
X97961Y212670D01*
X97984Y212771D01*
X98004Y212873D01*
X98020Y212975D01*
X98033Y213078D01*
X98041Y213181D01*
X98046Y213284D01*
X97903Y213284D01*
X97898Y213184D01*
X97890Y213084D01*
X97877Y212984D01*
X97861Y212885D01*
X97841Y212786D01*
X97818Y212689D01*
X97791Y212592D01*
X97760Y212497D01*
X97725Y212402D01*
X97687Y212309D01*
X97646Y212218D01*
X97601Y212128D01*
X97552Y212040D01*
X97501Y211954D01*
X97446Y211870D01*
X97388Y211788D01*
X97327Y211708D01*
X97263Y211631D01*
X97196Y211556D01*
X97127Y211483D01*
X97054Y211414D01*
X96979Y211347D01*
X96902Y211283D01*
X96822Y211222D01*
X96740Y211164D01*
X96656Y211109D01*
X96570Y211058D01*
X96482Y211009D01*
X96392Y210964D01*
X96301Y210923D01*
X96208Y210885D01*
X96113Y210850D01*
X96018Y210819D01*
X95921Y210792D01*
X95824Y210769D01*
X95725Y210749D01*
X95626Y210733D01*
X95526Y210720D01*
X95426Y210712D01*
X95326Y210707D01*
X95326Y210850D01*
X95426Y210855D01*
X95525Y210864D01*
X95624Y210877D01*
X95722Y210894D01*
X95820Y210915D01*
X95917Y210939D01*
X96012Y210968D01*
X96107Y211000D01*
X96200Y211036D01*
X96292Y211075D01*
X96381Y211118D01*
X96470Y211165D01*
X96556Y211215D01*
X96640Y211269D01*
X96722Y211326D01*
X96802Y211386D01*
X96879Y211449D01*
X96954Y211515D01*
X97026Y211584D01*
X97095Y211656D01*
X97161Y211731D01*
X97224Y211808D01*
X97284Y211888D01*
X97341Y211970D01*
X97395Y212054D01*
X97445Y212140D01*
X97492Y212229D01*
X97535Y212318D01*
X97574Y212410D01*
X97610Y212503D01*
X97642Y212598D01*
X97671Y212693D01*
X97695Y212790D01*
X97716Y212888D01*
X97733Y212986D01*
X97746Y213085D01*
X97755Y213184D01*
X97760Y213284D01*
X97617Y213284D01*
X97612Y213188D01*
X97603Y213092D01*
X97590Y212996D01*
X97573Y212901D01*
X97553Y212807D01*
X97528Y212714D01*
X97500Y212622D01*
X97468Y212531D01*
X97432Y212441D01*
X97393Y212353D01*
X97350Y212266D01*
X97304Y212182D01*
X97254Y212099D01*
X97201Y212019D01*
X97145Y211940D01*
X97086Y211864D01*
X97024Y211791D01*
X96958Y211720D01*
X96890Y211652D01*
X96819Y211586D01*
X96746Y211524D01*
X96670Y211465D01*
X96591Y211409D01*
X96511Y211356D01*
X96428Y211306D01*
X96344Y211260D01*
X96257Y211217D01*
X96169Y211178D01*
X96079Y211142D01*
X95988Y211110D01*
X95896Y211082D01*
X95803Y211057D01*
X95709Y211037D01*
X95614Y211020D01*
X95518Y211007D01*
X95422Y210998D01*
X95326Y210993D01*
X95326Y211136D01*
X95419Y211141D01*
X95511Y211150D01*
X95603Y211163D01*
X95694Y211180D01*
X95785Y211200D01*
X95875Y211224D01*
X95963Y211252D01*
X96051Y211284D01*
X96136Y211319D01*
X96221Y211358D01*
X96304Y211400D01*
X96384Y211446D01*
X96463Y211495D01*
X96540Y211547D01*
X96615Y211603D01*
X96687Y211661D01*
X96756Y211722D01*
X96823Y211787D01*
X96888Y211854D01*
X96949Y211923D01*
X97007Y211995D01*
X97063Y212070D01*
X97115Y212147D01*
X97164Y212226D01*
X97210Y212306D01*
X97252Y212389D01*
X97291Y212474D01*
X97326Y212559D01*
X97358Y212647D01*
X97386Y212735D01*
X97410Y212825D01*
X97430Y212916D01*
X97447Y213007D01*
X97460Y213099D01*
X97469Y213191D01*
X97474Y213284D01*
X97331Y213284D01*
X97325Y213195D01*
X97317Y213106D01*
X97304Y213018D01*
X97287Y212931D01*
X97267Y212844D01*
X97243Y212758D01*
X97216Y212673D01*
X97184Y212590D01*
X97150Y212508D01*
X97111Y212427D01*
X97070Y212349D01*
X97025Y212272D01*
X96977Y212197D01*
X96925Y212124D01*
X96871Y212053D01*
X96814Y211985D01*
X96753Y211920D01*
X96690Y211857D01*
X96625Y211796D01*
X96557Y211739D01*
X96486Y211685D01*
X96413Y211633D01*
X96338Y211585D01*
X96261Y211540D01*
X96183Y211499D01*
X96102Y211460D01*
X96020Y211426D01*
X95937Y211394D01*
X95852Y211367D01*
X95766Y211343D01*
X95679Y211323D01*
X95592Y211306D01*
X95504Y211293D01*
X95415Y211285D01*
X95326Y211279D01*
X95326Y211422D01*
X95411Y211428D01*
X95496Y211437D01*
X95580Y211449D01*
X95663Y211466D01*
X95746Y211486D01*
X95828Y211509D01*
X95908Y211536D01*
X95988Y211567D01*
X96066Y211601D01*
X96142Y211638D01*
X96217Y211679D01*
X96290Y211723D01*
X96361Y211771D01*
X96429Y211821D01*
X96496Y211874D01*
X96560Y211930D01*
X96621Y211989D01*
X96680Y212050D01*
X96736Y212114D01*
X96789Y212181D01*
X96839Y212249D01*
X96887Y212320D01*
X96931Y212393D01*
X96972Y212468D01*
X97009Y212544D01*
X97043Y212622D01*
X97074Y212702D01*
X97101Y212782D01*
X97124Y212864D01*
X97144Y212947D01*
X97161Y213030D01*
X97173Y213114D01*
X97182Y213199D01*
X97188Y213284D01*
D13*
X97790Y241300D02*
X97790Y243840D01*
X97790Y241300D02*
X96520Y240030D01*
X80010Y241300D02*
X80010Y243840D01*
X80010Y241300D02*
X81280Y240030D01*
X96520Y217170D02*
X97790Y215900D01*
X96520Y217170D02*
X96520Y240030D01*
X81280Y217170D02*
X80010Y215900D01*
X81280Y217170D02*
X81280Y240030D01*
X97790Y215900D02*
X97790Y213360D01*
X80010Y213360D02*
X80010Y215900D01*
D12*
X301675Y243915D02*
X300302Y243915D01*
X300302Y243916D02*
X300297Y243999D01*
X300288Y244083D01*
X300275Y244165D01*
X300259Y244247D01*
X300239Y244328D01*
X300215Y244409D01*
X300187Y244488D01*
X300156Y244565D01*
X300122Y244641D01*
X300084Y244716D01*
X300043Y244789D01*
X299998Y244860D01*
X299951Y244929D01*
X299900Y244995D01*
X299847Y245059D01*
X299790Y245121D01*
X299731Y245180D01*
X299669Y245237D01*
X299605Y245290D01*
X299539Y245341D01*
X299470Y245388D01*
X299399Y245433D01*
X299326Y245474D01*
X299251Y245512D01*
X299175Y245546D01*
X299098Y245577D01*
X299019Y245605D01*
X298938Y245629D01*
X298857Y245649D01*
X298775Y245665D01*
X298693Y245678D01*
X298609Y245687D01*
X298526Y245692D01*
X298525Y247065D01*
X298526Y247065D01*
X298638Y247061D01*
X298749Y247052D01*
X298860Y247040D01*
X298971Y247024D01*
X299080Y247004D01*
X299190Y246980D01*
X299298Y246953D01*
X299405Y246921D01*
X299511Y246886D01*
X299616Y246848D01*
X299720Y246806D01*
X299821Y246760D01*
X299922Y246711D01*
X300020Y246658D01*
X300117Y246602D01*
X300212Y246543D01*
X300304Y246480D01*
X300394Y246414D01*
X300482Y246345D01*
X300568Y246274D01*
X300651Y246199D01*
X300731Y246121D01*
X300809Y246041D01*
X300884Y245958D01*
X300955Y245872D01*
X301024Y245784D01*
X301090Y245694D01*
X301153Y245602D01*
X301212Y245507D01*
X301268Y245410D01*
X301321Y245312D01*
X301370Y245211D01*
X301416Y245110D01*
X301458Y245006D01*
X301496Y244901D01*
X301531Y244795D01*
X301563Y244688D01*
X301590Y244580D01*
X301614Y244470D01*
X301634Y244361D01*
X301650Y244250D01*
X301662Y244139D01*
X301671Y244028D01*
X301675Y243916D01*
X301532Y243916D01*
X301527Y244025D01*
X301519Y244134D01*
X301507Y244242D01*
X301491Y244350D01*
X301471Y244457D01*
X301447Y244564D01*
X301419Y244669D01*
X301388Y244774D01*
X301353Y244877D01*
X301315Y244979D01*
X301273Y245080D01*
X301227Y245179D01*
X301178Y245276D01*
X301125Y245372D01*
X301070Y245466D01*
X301010Y245557D01*
X300948Y245647D01*
X300883Y245734D01*
X300814Y245819D01*
X300743Y245901D01*
X300668Y245981D01*
X300591Y246058D01*
X300511Y246133D01*
X300429Y246204D01*
X300344Y246273D01*
X300257Y246338D01*
X300167Y246400D01*
X300076Y246460D01*
X299982Y246515D01*
X299886Y246568D01*
X299789Y246617D01*
X299690Y246663D01*
X299589Y246705D01*
X299487Y246743D01*
X299384Y246778D01*
X299279Y246809D01*
X299174Y246837D01*
X299067Y246861D01*
X298960Y246881D01*
X298852Y246897D01*
X298744Y246909D01*
X298635Y246917D01*
X298526Y246922D01*
X298526Y246779D01*
X298632Y246774D01*
X298738Y246766D01*
X298844Y246754D01*
X298949Y246737D01*
X299053Y246717D01*
X299157Y246694D01*
X299260Y246666D01*
X299361Y246635D01*
X299462Y246600D01*
X299561Y246562D01*
X299659Y246520D01*
X299755Y246475D01*
X299849Y246426D01*
X299942Y246373D01*
X300033Y246318D01*
X300121Y246259D01*
X300207Y246197D01*
X300292Y246132D01*
X300373Y246064D01*
X300452Y245993D01*
X300529Y245919D01*
X300603Y245842D01*
X300674Y245763D01*
X300742Y245682D01*
X300807Y245597D01*
X300869Y245511D01*
X300928Y245423D01*
X300983Y245332D01*
X301036Y245239D01*
X301085Y245145D01*
X301130Y245049D01*
X301172Y244951D01*
X301210Y244852D01*
X301245Y244751D01*
X301276Y244650D01*
X301304Y244547D01*
X301327Y244443D01*
X301347Y244339D01*
X301364Y244234D01*
X301376Y244128D01*
X301384Y244022D01*
X301389Y243916D01*
X301246Y243916D01*
X301241Y244019D01*
X301233Y244122D01*
X301220Y244225D01*
X301204Y244327D01*
X301184Y244429D01*
X301161Y244530D01*
X301133Y244629D01*
X301102Y244728D01*
X301068Y244825D01*
X301029Y244922D01*
X300988Y245016D01*
X300942Y245109D01*
X300894Y245201D01*
X300842Y245290D01*
X300787Y245377D01*
X300728Y245463D01*
X300667Y245546D01*
X300602Y245627D01*
X300534Y245705D01*
X300464Y245781D01*
X300391Y245854D01*
X300315Y245924D01*
X300237Y245992D01*
X300156Y246057D01*
X300073Y246118D01*
X299987Y246177D01*
X299900Y246232D01*
X299811Y246284D01*
X299719Y246332D01*
X299626Y246378D01*
X299532Y246419D01*
X299435Y246458D01*
X299338Y246492D01*
X299239Y246523D01*
X299140Y246551D01*
X299039Y246574D01*
X298937Y246594D01*
X298835Y246610D01*
X298732Y246623D01*
X298629Y246631D01*
X298526Y246636D01*
X298526Y246493D01*
X298626Y246488D01*
X298726Y246480D01*
X298826Y246467D01*
X298925Y246451D01*
X299024Y246431D01*
X299121Y246408D01*
X299218Y246381D01*
X299313Y246350D01*
X299408Y246315D01*
X299501Y246277D01*
X299592Y246236D01*
X299682Y246191D01*
X299770Y246142D01*
X299856Y246091D01*
X299940Y246036D01*
X300022Y245978D01*
X300102Y245917D01*
X300179Y245853D01*
X300254Y245786D01*
X300327Y245717D01*
X300396Y245644D01*
X300463Y245569D01*
X300527Y245492D01*
X300588Y245412D01*
X300646Y245330D01*
X300701Y245246D01*
X300752Y245160D01*
X300801Y245072D01*
X300846Y244982D01*
X300887Y244891D01*
X300925Y244798D01*
X300960Y244703D01*
X300991Y244608D01*
X301018Y244511D01*
X301041Y244414D01*
X301061Y244315D01*
X301077Y244216D01*
X301090Y244116D01*
X301098Y244016D01*
X301103Y243916D01*
X300960Y243916D01*
X300955Y244016D01*
X300946Y244115D01*
X300933Y244214D01*
X300916Y244312D01*
X300895Y244410D01*
X300871Y244507D01*
X300842Y244602D01*
X300810Y244697D01*
X300774Y244790D01*
X300735Y244882D01*
X300692Y244971D01*
X300645Y245060D01*
X300595Y245146D01*
X300541Y245230D01*
X300484Y245312D01*
X300424Y245392D01*
X300361Y245469D01*
X300295Y245544D01*
X300226Y245616D01*
X300154Y245685D01*
X300079Y245751D01*
X300002Y245814D01*
X299922Y245874D01*
X299840Y245931D01*
X299756Y245985D01*
X299670Y246035D01*
X299581Y246082D01*
X299492Y246125D01*
X299400Y246164D01*
X299307Y246200D01*
X299212Y246232D01*
X299117Y246261D01*
X299020Y246285D01*
X298922Y246306D01*
X298824Y246323D01*
X298725Y246336D01*
X298626Y246345D01*
X298526Y246350D01*
X298526Y246207D01*
X298622Y246202D01*
X298718Y246193D01*
X298814Y246180D01*
X298909Y246163D01*
X299003Y246143D01*
X299096Y246118D01*
X299188Y246090D01*
X299279Y246058D01*
X299369Y246022D01*
X299457Y245983D01*
X299544Y245940D01*
X299628Y245894D01*
X299711Y245844D01*
X299791Y245791D01*
X299870Y245735D01*
X299946Y245676D01*
X300019Y245614D01*
X300090Y245548D01*
X300158Y245480D01*
X300224Y245409D01*
X300286Y245336D01*
X300345Y245260D01*
X300401Y245181D01*
X300454Y245101D01*
X300504Y245018D01*
X300550Y244934D01*
X300593Y244847D01*
X300632Y244759D01*
X300668Y244669D01*
X300700Y244578D01*
X300728Y244486D01*
X300753Y244393D01*
X300773Y244299D01*
X300790Y244204D01*
X300803Y244108D01*
X300812Y244012D01*
X300817Y243916D01*
X300674Y243916D01*
X300669Y244009D01*
X300660Y244101D01*
X300647Y244193D01*
X300630Y244284D01*
X300610Y244375D01*
X300586Y244465D01*
X300558Y244553D01*
X300526Y244641D01*
X300491Y244726D01*
X300452Y244811D01*
X300410Y244894D01*
X300364Y244974D01*
X300315Y245053D01*
X300263Y245130D01*
X300207Y245205D01*
X300149Y245277D01*
X300088Y245346D01*
X300023Y245413D01*
X299956Y245478D01*
X299887Y245539D01*
X299815Y245597D01*
X299740Y245653D01*
X299663Y245705D01*
X299584Y245754D01*
X299504Y245800D01*
X299421Y245842D01*
X299336Y245881D01*
X299251Y245916D01*
X299163Y245948D01*
X299075Y245976D01*
X298985Y246000D01*
X298894Y246020D01*
X298803Y246037D01*
X298711Y246050D01*
X298619Y246059D01*
X298526Y246064D01*
X298526Y245921D01*
X298615Y245915D01*
X298704Y245907D01*
X298792Y245894D01*
X298879Y245877D01*
X298966Y245857D01*
X299052Y245833D01*
X299137Y245806D01*
X299220Y245774D01*
X299302Y245740D01*
X299383Y245701D01*
X299461Y245660D01*
X299538Y245615D01*
X299613Y245567D01*
X299686Y245515D01*
X299757Y245461D01*
X299825Y245404D01*
X299890Y245343D01*
X299953Y245280D01*
X300014Y245215D01*
X300071Y245147D01*
X300125Y245076D01*
X300177Y245003D01*
X300225Y244928D01*
X300270Y244851D01*
X300311Y244773D01*
X300350Y244692D01*
X300384Y244610D01*
X300416Y244527D01*
X300443Y244442D01*
X300467Y244356D01*
X300487Y244269D01*
X300504Y244182D01*
X300517Y244094D01*
X300525Y244005D01*
X300531Y243916D01*
X300388Y243916D01*
X300382Y244001D01*
X300373Y244086D01*
X300361Y244170D01*
X300344Y244253D01*
X300324Y244336D01*
X300301Y244418D01*
X300274Y244498D01*
X300243Y244578D01*
X300209Y244656D01*
X300172Y244732D01*
X300131Y244807D01*
X300087Y244880D01*
X300039Y244951D01*
X299989Y245019D01*
X299936Y245086D01*
X299880Y245150D01*
X299821Y245211D01*
X299760Y245270D01*
X299696Y245326D01*
X299629Y245379D01*
X299561Y245429D01*
X299490Y245477D01*
X299417Y245521D01*
X299342Y245562D01*
X299266Y245599D01*
X299188Y245633D01*
X299108Y245664D01*
X299028Y245691D01*
X298946Y245714D01*
X298863Y245734D01*
X298780Y245751D01*
X298696Y245763D01*
X298611Y245772D01*
X298526Y245778D01*
X285675Y247065D02*
X285675Y245692D01*
X285674Y245692D02*
X285591Y245687D01*
X285507Y245678D01*
X285425Y245665D01*
X285343Y245649D01*
X285262Y245629D01*
X285181Y245605D01*
X285102Y245577D01*
X285025Y245546D01*
X284949Y245512D01*
X284874Y245474D01*
X284801Y245433D01*
X284730Y245388D01*
X284661Y245341D01*
X284595Y245290D01*
X284531Y245237D01*
X284469Y245180D01*
X284410Y245121D01*
X284353Y245059D01*
X284300Y244995D01*
X284249Y244929D01*
X284202Y244860D01*
X284157Y244789D01*
X284116Y244716D01*
X284078Y244641D01*
X284044Y244565D01*
X284013Y244488D01*
X283985Y244409D01*
X283961Y244328D01*
X283941Y244247D01*
X283925Y244165D01*
X283912Y244083D01*
X283903Y243999D01*
X283898Y243916D01*
X282525Y243915D01*
X282525Y243916D01*
X282529Y244028D01*
X282538Y244139D01*
X282550Y244250D01*
X282566Y244361D01*
X282586Y244470D01*
X282610Y244580D01*
X282637Y244688D01*
X282669Y244795D01*
X282704Y244901D01*
X282742Y245006D01*
X282784Y245110D01*
X282830Y245211D01*
X282879Y245312D01*
X282932Y245410D01*
X282988Y245507D01*
X283047Y245602D01*
X283110Y245694D01*
X283176Y245784D01*
X283245Y245872D01*
X283316Y245958D01*
X283391Y246041D01*
X283469Y246121D01*
X283549Y246199D01*
X283632Y246274D01*
X283718Y246345D01*
X283806Y246414D01*
X283896Y246480D01*
X283988Y246543D01*
X284083Y246602D01*
X284180Y246658D01*
X284278Y246711D01*
X284379Y246760D01*
X284480Y246806D01*
X284584Y246848D01*
X284689Y246886D01*
X284795Y246921D01*
X284902Y246953D01*
X285010Y246980D01*
X285120Y247004D01*
X285229Y247024D01*
X285340Y247040D01*
X285451Y247052D01*
X285562Y247061D01*
X285674Y247065D01*
X285674Y246922D01*
X285565Y246917D01*
X285456Y246909D01*
X285348Y246897D01*
X285240Y246881D01*
X285133Y246861D01*
X285026Y246837D01*
X284921Y246809D01*
X284816Y246778D01*
X284713Y246743D01*
X284611Y246705D01*
X284510Y246663D01*
X284411Y246617D01*
X284314Y246568D01*
X284218Y246515D01*
X284124Y246460D01*
X284033Y246400D01*
X283943Y246338D01*
X283856Y246273D01*
X283771Y246204D01*
X283689Y246133D01*
X283609Y246058D01*
X283532Y245981D01*
X283457Y245901D01*
X283386Y245819D01*
X283317Y245734D01*
X283252Y245647D01*
X283190Y245557D01*
X283130Y245466D01*
X283075Y245372D01*
X283022Y245276D01*
X282973Y245179D01*
X282927Y245080D01*
X282885Y244979D01*
X282847Y244877D01*
X282812Y244774D01*
X282781Y244669D01*
X282753Y244564D01*
X282729Y244457D01*
X282709Y244350D01*
X282693Y244242D01*
X282681Y244134D01*
X282673Y244025D01*
X282668Y243916D01*
X282811Y243916D01*
X282816Y244022D01*
X282824Y244128D01*
X282836Y244234D01*
X282853Y244339D01*
X282873Y244443D01*
X282896Y244547D01*
X282924Y244650D01*
X282955Y244751D01*
X282990Y244852D01*
X283028Y244951D01*
X283070Y245049D01*
X283115Y245145D01*
X283164Y245239D01*
X283217Y245332D01*
X283272Y245423D01*
X283331Y245511D01*
X283393Y245597D01*
X283458Y245682D01*
X283526Y245763D01*
X283597Y245842D01*
X283671Y245919D01*
X283748Y245993D01*
X283827Y246064D01*
X283908Y246132D01*
X283993Y246197D01*
X284079Y246259D01*
X284167Y246318D01*
X284258Y246373D01*
X284351Y246426D01*
X284445Y246475D01*
X284541Y246520D01*
X284639Y246562D01*
X284738Y246600D01*
X284839Y246635D01*
X284940Y246666D01*
X285043Y246694D01*
X285147Y246717D01*
X285251Y246737D01*
X285356Y246754D01*
X285462Y246766D01*
X285568Y246774D01*
X285674Y246779D01*
X285674Y246636D01*
X285571Y246631D01*
X285468Y246623D01*
X285365Y246610D01*
X285263Y246594D01*
X285161Y246574D01*
X285060Y246551D01*
X284961Y246523D01*
X284862Y246492D01*
X284765Y246458D01*
X284668Y246419D01*
X284574Y246378D01*
X284481Y246332D01*
X284389Y246284D01*
X284300Y246232D01*
X284213Y246177D01*
X284127Y246118D01*
X284044Y246057D01*
X283963Y245992D01*
X283885Y245924D01*
X283809Y245854D01*
X283736Y245781D01*
X283666Y245705D01*
X283598Y245627D01*
X283533Y245546D01*
X283472Y245463D01*
X283413Y245377D01*
X283358Y245290D01*
X283306Y245201D01*
X283258Y245109D01*
X283212Y245016D01*
X283171Y244922D01*
X283132Y244825D01*
X283098Y244728D01*
X283067Y244629D01*
X283039Y244530D01*
X283016Y244429D01*
X282996Y244327D01*
X282980Y244225D01*
X282967Y244122D01*
X282959Y244019D01*
X282954Y243916D01*
X283097Y243916D01*
X283102Y244016D01*
X283110Y244116D01*
X283123Y244216D01*
X283139Y244315D01*
X283159Y244414D01*
X283182Y244511D01*
X283209Y244608D01*
X283240Y244703D01*
X283275Y244798D01*
X283313Y244891D01*
X283354Y244982D01*
X283399Y245072D01*
X283448Y245160D01*
X283499Y245246D01*
X283554Y245330D01*
X283612Y245412D01*
X283673Y245492D01*
X283737Y245569D01*
X283804Y245644D01*
X283873Y245717D01*
X283946Y245786D01*
X284021Y245853D01*
X284098Y245917D01*
X284178Y245978D01*
X284260Y246036D01*
X284344Y246091D01*
X284430Y246142D01*
X284518Y246191D01*
X284608Y246236D01*
X284699Y246277D01*
X284792Y246315D01*
X284887Y246350D01*
X284982Y246381D01*
X285079Y246408D01*
X285176Y246431D01*
X285275Y246451D01*
X285374Y246467D01*
X285474Y246480D01*
X285574Y246488D01*
X285674Y246493D01*
X285674Y246350D01*
X285574Y246345D01*
X285475Y246336D01*
X285376Y246323D01*
X285278Y246306D01*
X285180Y246285D01*
X285083Y246261D01*
X284988Y246232D01*
X284893Y246200D01*
X284800Y246164D01*
X284708Y246125D01*
X284619Y246082D01*
X284530Y246035D01*
X284444Y245985D01*
X284360Y245931D01*
X284278Y245874D01*
X284198Y245814D01*
X284121Y245751D01*
X284046Y245685D01*
X283974Y245616D01*
X283905Y245544D01*
X283839Y245469D01*
X283776Y245392D01*
X283716Y245312D01*
X283659Y245230D01*
X283605Y245146D01*
X283555Y245060D01*
X283508Y244971D01*
X283465Y244882D01*
X283426Y244790D01*
X283390Y244697D01*
X283358Y244602D01*
X283329Y244507D01*
X283305Y244410D01*
X283284Y244312D01*
X283267Y244214D01*
X283254Y244115D01*
X283245Y244016D01*
X283240Y243916D01*
X283383Y243916D01*
X283388Y244012D01*
X283397Y244108D01*
X283410Y244204D01*
X283427Y244299D01*
X283447Y244393D01*
X283472Y244486D01*
X283500Y244578D01*
X283532Y244669D01*
X283568Y244759D01*
X283607Y244847D01*
X283650Y244934D01*
X283696Y245018D01*
X283746Y245101D01*
X283799Y245181D01*
X283855Y245260D01*
X283914Y245336D01*
X283976Y245409D01*
X284042Y245480D01*
X284110Y245548D01*
X284181Y245614D01*
X284254Y245676D01*
X284330Y245735D01*
X284409Y245791D01*
X284489Y245844D01*
X284572Y245894D01*
X284656Y245940D01*
X284743Y245983D01*
X284831Y246022D01*
X284921Y246058D01*
X285012Y246090D01*
X285104Y246118D01*
X285197Y246143D01*
X285291Y246163D01*
X285386Y246180D01*
X285482Y246193D01*
X285578Y246202D01*
X285674Y246207D01*
X285674Y246064D01*
X285581Y246059D01*
X285489Y246050D01*
X285397Y246037D01*
X285306Y246020D01*
X285215Y246000D01*
X285125Y245976D01*
X285037Y245948D01*
X284949Y245916D01*
X284864Y245881D01*
X284779Y245842D01*
X284696Y245800D01*
X284616Y245754D01*
X284537Y245705D01*
X284460Y245653D01*
X284385Y245597D01*
X284313Y245539D01*
X284244Y245478D01*
X284177Y245413D01*
X284112Y245346D01*
X284051Y245277D01*
X283993Y245205D01*
X283937Y245130D01*
X283885Y245053D01*
X283836Y244974D01*
X283790Y244894D01*
X283748Y244811D01*
X283709Y244726D01*
X283674Y244641D01*
X283642Y244553D01*
X283614Y244465D01*
X283590Y244375D01*
X283570Y244284D01*
X283553Y244193D01*
X283540Y244101D01*
X283531Y244009D01*
X283526Y243916D01*
X283669Y243916D01*
X283675Y244005D01*
X283683Y244094D01*
X283696Y244182D01*
X283713Y244269D01*
X283733Y244356D01*
X283757Y244442D01*
X283784Y244527D01*
X283816Y244610D01*
X283850Y244692D01*
X283889Y244773D01*
X283930Y244851D01*
X283975Y244928D01*
X284023Y245003D01*
X284075Y245076D01*
X284129Y245147D01*
X284186Y245215D01*
X284247Y245280D01*
X284310Y245343D01*
X284375Y245404D01*
X284443Y245461D01*
X284514Y245515D01*
X284587Y245567D01*
X284662Y245615D01*
X284739Y245660D01*
X284817Y245701D01*
X284898Y245740D01*
X284980Y245774D01*
X285063Y245806D01*
X285148Y245833D01*
X285234Y245857D01*
X285321Y245877D01*
X285408Y245894D01*
X285496Y245907D01*
X285585Y245915D01*
X285674Y245921D01*
X285674Y245778D01*
X285589Y245772D01*
X285504Y245763D01*
X285420Y245751D01*
X285337Y245734D01*
X285254Y245714D01*
X285172Y245691D01*
X285092Y245664D01*
X285012Y245633D01*
X284934Y245599D01*
X284858Y245562D01*
X284783Y245521D01*
X284710Y245477D01*
X284639Y245429D01*
X284571Y245379D01*
X284504Y245326D01*
X284440Y245270D01*
X284379Y245211D01*
X284320Y245150D01*
X284264Y245086D01*
X284211Y245019D01*
X284161Y244951D01*
X284113Y244880D01*
X284069Y244807D01*
X284028Y244732D01*
X283991Y244656D01*
X283957Y244578D01*
X283926Y244498D01*
X283899Y244418D01*
X283876Y244336D01*
X283856Y244253D01*
X283839Y244170D01*
X283827Y244086D01*
X283818Y244001D01*
X283812Y243916D01*
X282525Y213285D02*
X283898Y213285D01*
X283898Y213284D02*
X283903Y213201D01*
X283912Y213117D01*
X283925Y213035D01*
X283941Y212953D01*
X283961Y212872D01*
X283985Y212791D01*
X284013Y212712D01*
X284044Y212635D01*
X284078Y212559D01*
X284116Y212484D01*
X284157Y212411D01*
X284202Y212340D01*
X284249Y212271D01*
X284300Y212205D01*
X284353Y212141D01*
X284410Y212079D01*
X284469Y212020D01*
X284531Y211963D01*
X284595Y211910D01*
X284661Y211859D01*
X284730Y211812D01*
X284801Y211767D01*
X284874Y211726D01*
X284949Y211688D01*
X285025Y211654D01*
X285102Y211623D01*
X285181Y211595D01*
X285262Y211571D01*
X285343Y211551D01*
X285425Y211535D01*
X285507Y211522D01*
X285591Y211513D01*
X285674Y211508D01*
X285675Y210135D01*
X285674Y210135D01*
X285562Y210139D01*
X285451Y210148D01*
X285340Y210160D01*
X285229Y210176D01*
X285120Y210196D01*
X285010Y210220D01*
X284902Y210247D01*
X284795Y210279D01*
X284689Y210314D01*
X284584Y210352D01*
X284480Y210394D01*
X284379Y210440D01*
X284278Y210489D01*
X284180Y210542D01*
X284083Y210598D01*
X283988Y210657D01*
X283896Y210720D01*
X283806Y210786D01*
X283718Y210855D01*
X283632Y210926D01*
X283549Y211001D01*
X283469Y211079D01*
X283391Y211159D01*
X283316Y211242D01*
X283245Y211328D01*
X283176Y211416D01*
X283110Y211506D01*
X283047Y211598D01*
X282988Y211693D01*
X282932Y211790D01*
X282879Y211888D01*
X282830Y211989D01*
X282784Y212090D01*
X282742Y212194D01*
X282704Y212299D01*
X282669Y212405D01*
X282637Y212512D01*
X282610Y212620D01*
X282586Y212730D01*
X282566Y212839D01*
X282550Y212950D01*
X282538Y213061D01*
X282529Y213172D01*
X282525Y213284D01*
X282668Y213284D01*
X282673Y213175D01*
X282681Y213066D01*
X282693Y212958D01*
X282709Y212850D01*
X282729Y212743D01*
X282753Y212636D01*
X282781Y212531D01*
X282812Y212426D01*
X282847Y212323D01*
X282885Y212221D01*
X282927Y212120D01*
X282973Y212021D01*
X283022Y211924D01*
X283075Y211828D01*
X283130Y211734D01*
X283190Y211643D01*
X283252Y211553D01*
X283317Y211466D01*
X283386Y211381D01*
X283457Y211299D01*
X283532Y211219D01*
X283609Y211142D01*
X283689Y211067D01*
X283771Y210996D01*
X283856Y210927D01*
X283943Y210862D01*
X284033Y210800D01*
X284124Y210740D01*
X284218Y210685D01*
X284314Y210632D01*
X284411Y210583D01*
X284510Y210537D01*
X284611Y210495D01*
X284713Y210457D01*
X284816Y210422D01*
X284921Y210391D01*
X285026Y210363D01*
X285133Y210339D01*
X285240Y210319D01*
X285348Y210303D01*
X285456Y210291D01*
X285565Y210283D01*
X285674Y210278D01*
X285674Y210421D01*
X285568Y210426D01*
X285462Y210434D01*
X285356Y210446D01*
X285251Y210463D01*
X285147Y210483D01*
X285043Y210506D01*
X284940Y210534D01*
X284839Y210565D01*
X284738Y210600D01*
X284639Y210638D01*
X284541Y210680D01*
X284445Y210725D01*
X284351Y210774D01*
X284258Y210827D01*
X284167Y210882D01*
X284079Y210941D01*
X283993Y211003D01*
X283908Y211068D01*
X283827Y211136D01*
X283748Y211207D01*
X283671Y211281D01*
X283597Y211358D01*
X283526Y211437D01*
X283458Y211518D01*
X283393Y211603D01*
X283331Y211689D01*
X283272Y211777D01*
X283217Y211868D01*
X283164Y211961D01*
X283115Y212055D01*
X283070Y212151D01*
X283028Y212249D01*
X282990Y212348D01*
X282955Y212449D01*
X282924Y212550D01*
X282896Y212653D01*
X282873Y212757D01*
X282853Y212861D01*
X282836Y212966D01*
X282824Y213072D01*
X282816Y213178D01*
X282811Y213284D01*
X282954Y213284D01*
X282959Y213181D01*
X282967Y213078D01*
X282980Y212975D01*
X282996Y212873D01*
X283016Y212771D01*
X283039Y212670D01*
X283067Y212571D01*
X283098Y212472D01*
X283132Y212375D01*
X283171Y212278D01*
X283212Y212184D01*
X283258Y212091D01*
X283306Y211999D01*
X283358Y211910D01*
X283413Y211823D01*
X283472Y211737D01*
X283533Y211654D01*
X283598Y211573D01*
X283666Y211495D01*
X283736Y211419D01*
X283809Y211346D01*
X283885Y211276D01*
X283963Y211208D01*
X284044Y211143D01*
X284127Y211082D01*
X284213Y211023D01*
X284300Y210968D01*
X284389Y210916D01*
X284481Y210868D01*
X284574Y210822D01*
X284668Y210781D01*
X284765Y210742D01*
X284862Y210708D01*
X284961Y210677D01*
X285060Y210649D01*
X285161Y210626D01*
X285263Y210606D01*
X285365Y210590D01*
X285468Y210577D01*
X285571Y210569D01*
X285674Y210564D01*
X285674Y210707D01*
X285574Y210712D01*
X285474Y210720D01*
X285374Y210733D01*
X285275Y210749D01*
X285176Y210769D01*
X285079Y210792D01*
X284982Y210819D01*
X284887Y210850D01*
X284792Y210885D01*
X284699Y210923D01*
X284608Y210964D01*
X284518Y211009D01*
X284430Y211058D01*
X284344Y211109D01*
X284260Y211164D01*
X284178Y211222D01*
X284098Y211283D01*
X284021Y211347D01*
X283946Y211414D01*
X283873Y211483D01*
X283804Y211556D01*
X283737Y211631D01*
X283673Y211708D01*
X283612Y211788D01*
X283554Y211870D01*
X283499Y211954D01*
X283448Y212040D01*
X283399Y212128D01*
X283354Y212218D01*
X283313Y212309D01*
X283275Y212402D01*
X283240Y212497D01*
X283209Y212592D01*
X283182Y212689D01*
X283159Y212786D01*
X283139Y212885D01*
X283123Y212984D01*
X283110Y213084D01*
X283102Y213184D01*
X283097Y213284D01*
X283240Y213284D01*
X283245Y213184D01*
X283254Y213085D01*
X283267Y212986D01*
X283284Y212888D01*
X283305Y212790D01*
X283329Y212693D01*
X283358Y212598D01*
X283390Y212503D01*
X283426Y212410D01*
X283465Y212318D01*
X283508Y212229D01*
X283555Y212140D01*
X283605Y212054D01*
X283659Y211970D01*
X283716Y211888D01*
X283776Y211808D01*
X283839Y211731D01*
X283905Y211656D01*
X283974Y211584D01*
X284046Y211515D01*
X284121Y211449D01*
X284198Y211386D01*
X284278Y211326D01*
X284360Y211269D01*
X284444Y211215D01*
X284530Y211165D01*
X284619Y211118D01*
X284708Y211075D01*
X284800Y211036D01*
X284893Y211000D01*
X284988Y210968D01*
X285083Y210939D01*
X285180Y210915D01*
X285278Y210894D01*
X285376Y210877D01*
X285475Y210864D01*
X285574Y210855D01*
X285674Y210850D01*
X285674Y210993D01*
X285578Y210998D01*
X285482Y211007D01*
X285386Y211020D01*
X285291Y211037D01*
X285197Y211057D01*
X285104Y211082D01*
X285012Y211110D01*
X284921Y211142D01*
X284831Y211178D01*
X284743Y211217D01*
X284656Y211260D01*
X284572Y211306D01*
X284489Y211356D01*
X284409Y211409D01*
X284330Y211465D01*
X284254Y211524D01*
X284181Y211586D01*
X284110Y211652D01*
X284042Y211720D01*
X283976Y211791D01*
X283914Y211864D01*
X283855Y211940D01*
X283799Y212019D01*
X283746Y212099D01*
X283696Y212182D01*
X283650Y212266D01*
X283607Y212353D01*
X283568Y212441D01*
X283532Y212531D01*
X283500Y212622D01*
X283472Y212714D01*
X283447Y212807D01*
X283427Y212901D01*
X283410Y212996D01*
X283397Y213092D01*
X283388Y213188D01*
X283383Y213284D01*
X283526Y213284D01*
X283531Y213191D01*
X283540Y213099D01*
X283553Y213007D01*
X283570Y212916D01*
X283590Y212825D01*
X283614Y212735D01*
X283642Y212647D01*
X283674Y212559D01*
X283709Y212474D01*
X283748Y212389D01*
X283790Y212306D01*
X283836Y212226D01*
X283885Y212147D01*
X283937Y212070D01*
X283993Y211995D01*
X284051Y211923D01*
X284112Y211854D01*
X284177Y211787D01*
X284244Y211722D01*
X284313Y211661D01*
X284385Y211603D01*
X284460Y211547D01*
X284537Y211495D01*
X284616Y211446D01*
X284696Y211400D01*
X284779Y211358D01*
X284864Y211319D01*
X284949Y211284D01*
X285037Y211252D01*
X285125Y211224D01*
X285215Y211200D01*
X285306Y211180D01*
X285397Y211163D01*
X285489Y211150D01*
X285581Y211141D01*
X285674Y211136D01*
X285674Y211279D01*
X285585Y211285D01*
X285496Y211293D01*
X285408Y211306D01*
X285321Y211323D01*
X285234Y211343D01*
X285148Y211367D01*
X285063Y211394D01*
X284980Y211426D01*
X284898Y211460D01*
X284817Y211499D01*
X284739Y211540D01*
X284662Y211585D01*
X284587Y211633D01*
X284514Y211685D01*
X284443Y211739D01*
X284375Y211796D01*
X284310Y211857D01*
X284247Y211920D01*
X284186Y211985D01*
X284129Y212053D01*
X284075Y212124D01*
X284023Y212197D01*
X283975Y212272D01*
X283930Y212349D01*
X283889Y212427D01*
X283850Y212508D01*
X283816Y212590D01*
X283784Y212673D01*
X283757Y212758D01*
X283733Y212844D01*
X283713Y212931D01*
X283696Y213018D01*
X283683Y213106D01*
X283675Y213195D01*
X283669Y213284D01*
X283812Y213284D01*
X283818Y213199D01*
X283827Y213114D01*
X283839Y213030D01*
X283856Y212947D01*
X283876Y212864D01*
X283899Y212782D01*
X283926Y212702D01*
X283957Y212622D01*
X283991Y212544D01*
X284028Y212468D01*
X284069Y212393D01*
X284113Y212320D01*
X284161Y212249D01*
X284211Y212181D01*
X284264Y212114D01*
X284320Y212050D01*
X284379Y211989D01*
X284440Y211930D01*
X284504Y211874D01*
X284571Y211821D01*
X284639Y211771D01*
X284710Y211723D01*
X284783Y211679D01*
X284858Y211638D01*
X284934Y211601D01*
X285012Y211567D01*
X285092Y211536D01*
X285172Y211509D01*
X285254Y211486D01*
X285337Y211466D01*
X285420Y211449D01*
X285504Y211437D01*
X285589Y211428D01*
X285674Y211422D01*
X298525Y210135D02*
X298525Y211508D01*
X298526Y211508D02*
X298609Y211513D01*
X298693Y211522D01*
X298775Y211535D01*
X298857Y211551D01*
X298938Y211571D01*
X299019Y211595D01*
X299098Y211623D01*
X299175Y211654D01*
X299251Y211688D01*
X299326Y211726D01*
X299399Y211767D01*
X299470Y211812D01*
X299539Y211859D01*
X299605Y211910D01*
X299669Y211963D01*
X299731Y212020D01*
X299790Y212079D01*
X299847Y212141D01*
X299900Y212205D01*
X299951Y212271D01*
X299998Y212340D01*
X300043Y212411D01*
X300084Y212484D01*
X300122Y212559D01*
X300156Y212635D01*
X300187Y212712D01*
X300215Y212791D01*
X300239Y212872D01*
X300259Y212953D01*
X300275Y213035D01*
X300288Y213117D01*
X300297Y213201D01*
X300302Y213284D01*
X301675Y213285D01*
X301675Y213284D01*
X301671Y213172D01*
X301662Y213061D01*
X301650Y212950D01*
X301634Y212839D01*
X301614Y212730D01*
X301590Y212620D01*
X301563Y212512D01*
X301531Y212405D01*
X301496Y212299D01*
X301458Y212194D01*
X301416Y212090D01*
X301370Y211989D01*
X301321Y211888D01*
X301268Y211790D01*
X301212Y211693D01*
X301153Y211598D01*
X301090Y211506D01*
X301024Y211416D01*
X300955Y211328D01*
X300884Y211242D01*
X300809Y211159D01*
X300731Y211079D01*
X300651Y211001D01*
X300568Y210926D01*
X300482Y210855D01*
X300394Y210786D01*
X300304Y210720D01*
X300212Y210657D01*
X300117Y210598D01*
X300020Y210542D01*
X299922Y210489D01*
X299821Y210440D01*
X299720Y210394D01*
X299616Y210352D01*
X299511Y210314D01*
X299405Y210279D01*
X299298Y210247D01*
X299190Y210220D01*
X299080Y210196D01*
X298971Y210176D01*
X298860Y210160D01*
X298749Y210148D01*
X298638Y210139D01*
X298526Y210135D01*
X298526Y210278D01*
X298635Y210283D01*
X298744Y210291D01*
X298852Y210303D01*
X298960Y210319D01*
X299067Y210339D01*
X299174Y210363D01*
X299279Y210391D01*
X299384Y210422D01*
X299487Y210457D01*
X299589Y210495D01*
X299690Y210537D01*
X299789Y210583D01*
X299886Y210632D01*
X299982Y210685D01*
X300076Y210740D01*
X300167Y210800D01*
X300257Y210862D01*
X300344Y210927D01*
X300429Y210996D01*
X300511Y211067D01*
X300591Y211142D01*
X300668Y211219D01*
X300743Y211299D01*
X300814Y211381D01*
X300883Y211466D01*
X300948Y211553D01*
X301010Y211643D01*
X301070Y211734D01*
X301125Y211828D01*
X301178Y211924D01*
X301227Y212021D01*
X301273Y212120D01*
X301315Y212221D01*
X301353Y212323D01*
X301388Y212426D01*
X301419Y212531D01*
X301447Y212636D01*
X301471Y212743D01*
X301491Y212850D01*
X301507Y212958D01*
X301519Y213066D01*
X301527Y213175D01*
X301532Y213284D01*
X301389Y213284D01*
X301384Y213178D01*
X301376Y213072D01*
X301364Y212966D01*
X301347Y212861D01*
X301327Y212757D01*
X301304Y212653D01*
X301276Y212550D01*
X301245Y212449D01*
X301210Y212348D01*
X301172Y212249D01*
X301130Y212151D01*
X301085Y212055D01*
X301036Y211961D01*
X300983Y211868D01*
X300928Y211777D01*
X300869Y211689D01*
X300807Y211603D01*
X300742Y211518D01*
X300674Y211437D01*
X300603Y211358D01*
X300529Y211281D01*
X300452Y211207D01*
X300373Y211136D01*
X300292Y211068D01*
X300207Y211003D01*
X300121Y210941D01*
X300033Y210882D01*
X299942Y210827D01*
X299849Y210774D01*
X299755Y210725D01*
X299659Y210680D01*
X299561Y210638D01*
X299462Y210600D01*
X299361Y210565D01*
X299260Y210534D01*
X299157Y210506D01*
X299053Y210483D01*
X298949Y210463D01*
X298844Y210446D01*
X298738Y210434D01*
X298632Y210426D01*
X298526Y210421D01*
X298526Y210564D01*
X298629Y210569D01*
X298732Y210577D01*
X298835Y210590D01*
X298937Y210606D01*
X299039Y210626D01*
X299140Y210649D01*
X299239Y210677D01*
X299338Y210708D01*
X299435Y210742D01*
X299532Y210781D01*
X299626Y210822D01*
X299719Y210868D01*
X299811Y210916D01*
X299900Y210968D01*
X299987Y211023D01*
X300073Y211082D01*
X300156Y211143D01*
X300237Y211208D01*
X300315Y211276D01*
X300391Y211346D01*
X300464Y211419D01*
X300534Y211495D01*
X300602Y211573D01*
X300667Y211654D01*
X300728Y211737D01*
X300787Y211823D01*
X300842Y211910D01*
X300894Y211999D01*
X300942Y212091D01*
X300988Y212184D01*
X301029Y212278D01*
X301068Y212375D01*
X301102Y212472D01*
X301133Y212571D01*
X301161Y212670D01*
X301184Y212771D01*
X301204Y212873D01*
X301220Y212975D01*
X301233Y213078D01*
X301241Y213181D01*
X301246Y213284D01*
X301103Y213284D01*
X301098Y213184D01*
X301090Y213084D01*
X301077Y212984D01*
X301061Y212885D01*
X301041Y212786D01*
X301018Y212689D01*
X300991Y212592D01*
X300960Y212497D01*
X300925Y212402D01*
X300887Y212309D01*
X300846Y212218D01*
X300801Y212128D01*
X300752Y212040D01*
X300701Y211954D01*
X300646Y211870D01*
X300588Y211788D01*
X300527Y211708D01*
X300463Y211631D01*
X300396Y211556D01*
X300327Y211483D01*
X300254Y211414D01*
X300179Y211347D01*
X300102Y211283D01*
X300022Y211222D01*
X299940Y211164D01*
X299856Y211109D01*
X299770Y211058D01*
X299682Y211009D01*
X299592Y210964D01*
X299501Y210923D01*
X299408Y210885D01*
X299313Y210850D01*
X299218Y210819D01*
X299121Y210792D01*
X299024Y210769D01*
X298925Y210749D01*
X298826Y210733D01*
X298726Y210720D01*
X298626Y210712D01*
X298526Y210707D01*
X298526Y210850D01*
X298626Y210855D01*
X298725Y210864D01*
X298824Y210877D01*
X298922Y210894D01*
X299020Y210915D01*
X299117Y210939D01*
X299212Y210968D01*
X299307Y211000D01*
X299400Y211036D01*
X299492Y211075D01*
X299581Y211118D01*
X299670Y211165D01*
X299756Y211215D01*
X299840Y211269D01*
X299922Y211326D01*
X300002Y211386D01*
X300079Y211449D01*
X300154Y211515D01*
X300226Y211584D01*
X300295Y211656D01*
X300361Y211731D01*
X300424Y211808D01*
X300484Y211888D01*
X300541Y211970D01*
X300595Y212054D01*
X300645Y212140D01*
X300692Y212229D01*
X300735Y212318D01*
X300774Y212410D01*
X300810Y212503D01*
X300842Y212598D01*
X300871Y212693D01*
X300895Y212790D01*
X300916Y212888D01*
X300933Y212986D01*
X300946Y213085D01*
X300955Y213184D01*
X300960Y213284D01*
X300817Y213284D01*
X300812Y213188D01*
X300803Y213092D01*
X300790Y212996D01*
X300773Y212901D01*
X300753Y212807D01*
X300728Y212714D01*
X300700Y212622D01*
X300668Y212531D01*
X300632Y212441D01*
X300593Y212353D01*
X300550Y212266D01*
X300504Y212182D01*
X300454Y212099D01*
X300401Y212019D01*
X300345Y211940D01*
X300286Y211864D01*
X300224Y211791D01*
X300158Y211720D01*
X300090Y211652D01*
X300019Y211586D01*
X299946Y211524D01*
X299870Y211465D01*
X299791Y211409D01*
X299711Y211356D01*
X299628Y211306D01*
X299544Y211260D01*
X299457Y211217D01*
X299369Y211178D01*
X299279Y211142D01*
X299188Y211110D01*
X299096Y211082D01*
X299003Y211057D01*
X298909Y211037D01*
X298814Y211020D01*
X298718Y211007D01*
X298622Y210998D01*
X298526Y210993D01*
X298526Y211136D01*
X298619Y211141D01*
X298711Y211150D01*
X298803Y211163D01*
X298894Y211180D01*
X298985Y211200D01*
X299075Y211224D01*
X299163Y211252D01*
X299251Y211284D01*
X299336Y211319D01*
X299421Y211358D01*
X299504Y211400D01*
X299584Y211446D01*
X299663Y211495D01*
X299740Y211547D01*
X299815Y211603D01*
X299887Y211661D01*
X299956Y211722D01*
X300023Y211787D01*
X300088Y211854D01*
X300149Y211923D01*
X300207Y211995D01*
X300263Y212070D01*
X300315Y212147D01*
X300364Y212226D01*
X300410Y212306D01*
X300452Y212389D01*
X300491Y212474D01*
X300526Y212559D01*
X300558Y212647D01*
X300586Y212735D01*
X300610Y212825D01*
X300630Y212916D01*
X300647Y213007D01*
X300660Y213099D01*
X300669Y213191D01*
X300674Y213284D01*
X300531Y213284D01*
X300525Y213195D01*
X300517Y213106D01*
X300504Y213018D01*
X300487Y212931D01*
X300467Y212844D01*
X300443Y212758D01*
X300416Y212673D01*
X300384Y212590D01*
X300350Y212508D01*
X300311Y212427D01*
X300270Y212349D01*
X300225Y212272D01*
X300177Y212197D01*
X300125Y212124D01*
X300071Y212053D01*
X300014Y211985D01*
X299953Y211920D01*
X299890Y211857D01*
X299825Y211796D01*
X299757Y211739D01*
X299686Y211685D01*
X299613Y211633D01*
X299538Y211585D01*
X299461Y211540D01*
X299383Y211499D01*
X299302Y211460D01*
X299220Y211426D01*
X299137Y211394D01*
X299052Y211367D01*
X298966Y211343D01*
X298879Y211323D01*
X298792Y211306D01*
X298704Y211293D01*
X298615Y211285D01*
X298526Y211279D01*
X298526Y211422D01*
X298611Y211428D01*
X298696Y211437D01*
X298780Y211449D01*
X298863Y211466D01*
X298946Y211486D01*
X299028Y211509D01*
X299108Y211536D01*
X299188Y211567D01*
X299266Y211601D01*
X299342Y211638D01*
X299417Y211679D01*
X299490Y211723D01*
X299561Y211771D01*
X299629Y211821D01*
X299696Y211874D01*
X299760Y211930D01*
X299821Y211989D01*
X299880Y212050D01*
X299936Y212114D01*
X299989Y212181D01*
X300039Y212249D01*
X300087Y212320D01*
X300131Y212393D01*
X300172Y212468D01*
X300209Y212544D01*
X300243Y212622D01*
X300274Y212702D01*
X300301Y212782D01*
X300324Y212864D01*
X300344Y212947D01*
X300361Y213030D01*
X300373Y213114D01*
X300382Y213199D01*
X300388Y213284D01*
D13*
X300990Y241300D02*
X300990Y243840D01*
X300990Y241300D02*
X299720Y240030D01*
X283210Y241300D02*
X283210Y243840D01*
X283210Y241300D02*
X284480Y240030D01*
X299720Y217170D02*
X300990Y215900D01*
X299720Y217170D02*
X299720Y240030D01*
X284480Y217170D02*
X283210Y215900D01*
X284480Y217170D02*
X284480Y240030D01*
X300990Y215900D02*
X300990Y213360D01*
X283210Y213360D02*
X283210Y215900D01*
D14*
X368300Y12700D02*
X12700Y12700D01*
X12700Y190500D01*
X368300Y190500D01*
X368300Y141900D01*
X374800Y141900D01*
X374800Y61300D01*
X368300Y61300D01*
X368300Y12700D01*
M02*
