G04 EAGLE Gerber RS-274X export*
G75*
%MOMM*%
%FSLAX34Y34*%
%LPD*%
%INSoldermask Bottom*%
%IPPOS*%
%AMOC8*
5,1,8,0,0,1.08239X$1,22.5*%
G01*
%ADD10C,3.603200*%
%ADD11C,2.082800*%
%ADD12P,2.034460X8X292.500000*%
%ADD13C,1.711200*%


D10*
X30500Y240000D03*
X350500Y240000D03*
D11*
X152400Y319400D03*
X177800Y319400D03*
X203200Y319400D03*
X228600Y319400D03*
X127000Y215900D03*
X127000Y241300D03*
X152400Y215900D03*
X152400Y241300D03*
X177800Y215900D03*
X177800Y241300D03*
X203200Y215900D03*
X203200Y241300D03*
X228600Y215900D03*
X228600Y241300D03*
X254000Y215900D03*
X254000Y241300D03*
D12*
X88900Y254000D03*
X88900Y203200D03*
X292100Y254000D03*
X292100Y203200D03*
D13*
X355600Y177800D03*
X330200Y177800D03*
X304800Y177800D03*
X279400Y177800D03*
X254000Y177800D03*
X228600Y177800D03*
X203200Y177800D03*
X177800Y177800D03*
X152400Y177800D03*
X127000Y177800D03*
X101600Y177800D03*
X76200Y177800D03*
X50800Y177800D03*
X25400Y177800D03*
X25400Y152400D03*
X25400Y127000D03*
X25400Y101600D03*
X25400Y76200D03*
X25400Y50800D03*
X25400Y25400D03*
X50800Y25400D03*
X76200Y25400D03*
X101600Y25400D03*
X127000Y25400D03*
X152400Y25400D03*
X177800Y25400D03*
X203200Y25400D03*
X228600Y25400D03*
X254000Y25400D03*
X279400Y25400D03*
X304800Y25400D03*
X330200Y25400D03*
X355600Y25400D03*
M02*
